<svg role="img" viewBox="0 0 24 24" xmlns="http://www.w3.org/2000/svg">
  <title>GitHub</title>
  <path fill="white" stroke="black" stroke-width="1" d="M12 0C5.37 0 0 5.37 0 12c0 5.3 3.438 9.8 8.205 11.385.6.113.82-.263.82-.583 0-.288-.01-1.05-.015-2.06-3.338.725-4.042-1.61-4.042-1.61-.546-1.387-1.333-1.757-1.333-1.757-1.09-.745.083-.73.083-.73 1.205.085 1.84 1.237 1.84 1.237 1.07 1.835 2.807 1.305 3.492.997.108-.775.418-1.305.76-1.605-2.665-.305-5.466-1.335-5.466-5.93 0-1.31.47-2.38 1.235-3.22-.125-.305-.535-1.54.115-3.205 0 0 1.005-.322 3.3 1.23.96-.267 1.98-.4 3-.405 1.02.005 2.04.138 3 .405 2.28-1.552 3.285-1.23 3.285-1.23.655 1.665.245 2.9.12 3.205.77.84 1.23 1.91 1.23 3.22 0 4.61-2.805 5.62-5.475 5.92.43.37.815 1.1.815 2.22 0 1.605-.015 2.895-.015 3.285 0 .32.215.705.825.585C20.565 21.795 24 17.295 24 12c0-6.63-5.37-12-12-12z"/>
</svg>