<svg width="1024" height="1024" viewBox="0 0 1024 1024" fill="none" xmlns="http://www.w3.org/2000/svg">
<g clip-path="url(#clip0_2305_1211)">
<rect width="1024" height="1024" fill="white"/>
<g clip-path="url(#clip1_2305_1211)">
<rect width="1024" height="1024" fill="#9AD0E6"/>
<path d="M897.267 628.306C781.143 729.651 -50.1969 893.104 -451.352 962.162V1065.09H1056.94V570.244C1052.1 547.372 1013.39 526.962 897.267 628.306Z" fill="#0A2276" stroke="#141414" stroke-width="26.3917"/>
<path d="M188.849 449.704L292.757 488.143L336.869 572.872L343.998 625L321.998 696.201L222.528 689.342L151.424 574.308L188.849 449.704Z" fill="#FFF203"/>
<path d="M23.7266 -7.77999L591.546 6.73109L736.34 416.999L614.902 434.14L531.925 439.977L286.343 395.576L162.842 442.063L23.7266 416.999V-7.77999Z" fill="#0F3EB6"/>
<g style="mix-blend-mode:hard-light">
<path d="M188.126 449.73C81.0287 414.605 -53.3886 409.73 -129.367 432.179V-14.373H756.166C779.376 179.385 749.808 539.956 445.851 432.179C290.804 377.202 220.145 403.544 188.126 449.73C300.089 486.452 382.193 556.237 336.447 662.431C299.499 748.204 162.262 672.988 162.262 583.256C162.262 556.75 157.373 494.088 188.126 449.73Z" fill="#7FB1DF" fill-opacity="0.5"/>
<path d="M-129.367 432.179C26.0426 386.262 425.95 454.658 336.447 662.431C299.499 748.204 162.262 672.988 162.262 583.256C162.262 529.153 141.893 324.401 445.851 432.179C749.808 539.956 779.376 179.385 756.166 -14.373H-129.367V432.179Z" stroke="#141414" stroke-width="26.3917"/>
</g>
<path d="M-129 431.552C26.4097 385.635 426.317 454.031 336.814 661.804C299.866 747.577 162.629 672.361 162.629 582.629C162.629 528.526 142.261 323.774 446.218 431.552C750.175 539.329 779.743 178.758 756.533 -15H-129V431.552Z" stroke="#141414" stroke-width="26.3917"/>
<path d="M182.054 -7.9375C182.054 135.634 52.734 161.849 -11.9258 157.011V-7.9375H182.054Z" fill="#36A8E9" stroke="#141414" stroke-width="26.3917"/>
<path d="M1097.1 1007.91H255.317C300.319 1001.63 346.348 994.356 392.241 986.013C572.88 953.174 754.272 903.265 861.621 829.711C912.534 794.826 952.262 779.836 982.718 777.007C1012.51 774.24 1034.09 783.006 1050.23 797.689C1066.87 812.821 1078.72 835.185 1086.38 860.704C1093.99 886.095 1097.1 913.443 1097.1 937.116V1007.91Z" fill="#141414" stroke="#141414" stroke-width="32.1809"/>
<path d="M616.245 1078.06L1028.12 98.9161L1563.81 1078.06H616.245Z" fill="#06080E" fill-opacity="0.5" stroke="#141414" stroke-width="26.3917"/>
<path d="M1054.3 684.861C746.048 818.932 564.297 248.958 511.953 -52.7881H1054.3V684.861Z" fill="#36A8E9" stroke="#141414" stroke-width="26.3917"/>
<path d="M761.348 7.94434H526.461C540.185 148.348 622.791 342.68 662.378 422.295C755.277 352.621 767.066 117.03 761.348 7.94434Z" fill="#E7EB5C" stroke="#141414" stroke-width="26.3917"/>
<path d="M1022.67 131.975L804.938 636.057C850.331 726.845 969.006 720.511 1022.67 705.995V131.975Z" fill="#0F62D1" stroke="#141414" stroke-width="26.3917"/>
</g>
<rect x="13.1959" y="13.1959" width="997.608" height="997.608" stroke="#141414" stroke-width="26.3917"/>
</g>
<defs>
<clipPath id="clip0_2305_1211">
<rect width="1024" height="1024" fill="white"/>
</clipPath>
<clipPath id="clip1_2305_1211">
<rect width="1024" height="1024" fill="white"/>
</clipPath>
</defs>
</svg>
