<svg width="960" height="960" viewBox="0 0 960 960" fill="none" xmlns="http://www.w3.org/2000/svg">
<rect x="0.5" y="0.5" width="959" height="959" fill="#0B0F1A"/>
<rect x="0.5" y="0.5" width="959" height="959" stroke="black"/>
<g filter="url(#filter0_i_2217_9132)">
<path d="M308.5 479.839V280.367C308.5 277.155 311.8 275.001 314.74 276.294L466.301 342.935C467.916 343.645 468.96 345.243 468.96 347.007V552.243V564.102C468.96 567.314 465.659 569.467 462.72 568.175L327.292 508.628C315.873 503.607 308.5 492.312 308.5 479.839Z" fill="url(#paint0_linear_2217_9132)"/>
</g>
<path d="M345.176 271.049L464.397 324.658C465.11 324.979 465.645 323.964 464.978 323.556L363.658 261.776L343.618 268.314C343.505 269.389 344.002 270.52 345.176 271.049Z" fill="#FFE7DF"/>
<path d="M466.434 317.056C466.552 317.136 466.676 316.967 466.566 316.877L390.184 253.117L377.508 257.253L466.434 317.056Z" fill="#FFE7DF"/>
<path d="M415.069 245L402.069 249.241L472.12 311.686C472.221 311.786 472.375 311.642 472.282 311.535L415.069 245Z" fill="#FFE7DF"/>
<g filter="url(#filter1_i_2217_9132)">
<path d="M651.5 479.839V280.367C651.5 277.155 648.2 275.001 645.26 276.294L493.699 342.935C492.084 343.645 491.041 345.243 491.041 347.007V552.243V564.102C491.041 567.314 494.341 569.467 497.282 568.175L632.71 508.628C644.127 503.607 651.5 492.312 651.5 479.839Z" fill="url(#paint1_linear_2217_9132)"/>
</g>
<path d="M614.826 271.049L495.605 324.658C494.892 324.979 494.357 323.964 495.025 323.556L596.346 261.776L616.385 268.314C616.497 269.389 615.999 270.52 614.826 271.049Z" fill="#FFE7DF"/>
<path d="M493.567 317.056C493.449 317.136 493.325 316.967 493.436 316.877L569.818 253.117L582.494 257.253L493.567 317.056Z" fill="#FFE7DF"/>
<path d="M544.932 245L557.932 249.241L487.881 311.686C487.781 311.786 487.627 311.642 487.72 311.535L544.932 245Z" fill="#FFE7DF"/>
<path d="M270.038 671.556V600.156H283.808V660.846H315.122V671.556H270.038ZM348.902 672.78C343.734 672.78 339.144 671.692 335.132 669.516C331.188 667.272 328.094 664.178 325.85 660.234C323.674 656.222 322.586 651.598 322.586 646.362C322.586 640.99 323.674 636.264 325.85 632.184C328.094 628.036 331.188 624.806 335.132 622.494C339.076 620.114 343.666 618.924 348.902 618.924C354.002 618.924 358.456 620.046 362.264 622.29C366.072 624.534 369.03 627.56 371.138 631.368C373.246 635.176 374.3 639.494 374.3 644.322C374.3 645.002 374.3 645.784 374.3 646.668C374.3 647.484 374.232 648.334 374.096 649.218H332.378V640.854H360.428C360.224 637.522 359.034 634.904 356.858 633C354.75 631.096 352.098 630.144 348.902 630.144C346.59 630.144 344.448 630.688 342.476 631.776C340.504 632.796 338.94 634.394 337.784 636.57C336.696 638.746 336.152 641.5 336.152 644.832V647.79C336.152 650.578 336.662 653.026 337.682 655.134C338.77 657.174 340.266 658.772 342.17 659.928C344.074 661.016 346.284 661.56 348.8 661.56C351.316 661.56 353.39 661.016 355.022 659.928C356.722 658.84 357.98 657.446 358.796 655.746H372.872C371.92 658.942 370.322 661.832 368.078 664.416C365.834 667 363.08 669.04 359.816 670.536C356.552 672.032 352.914 672.78 348.902 672.78ZM408.426 672.78C403.734 672.78 399.518 671.624 395.778 669.312C392.106 667 389.216 663.804 387.108 659.724C385 655.644 383.946 651.054 383.946 645.954C383.946 640.718 385 636.094 387.108 632.082C389.284 628.002 392.242 624.806 395.982 622.494C399.79 620.114 404.04 618.924 408.732 618.924C412.404 618.924 415.634 619.604 418.422 620.964C421.21 622.324 423.454 624.262 425.154 626.778V598.116H438.924V671.556H426.684L425.154 664.518C424.134 665.946 422.842 667.306 421.278 668.598C419.782 669.89 417.98 670.91 415.872 671.658C413.764 672.406 411.282 672.78 408.426 672.78ZM411.69 660.744C414.41 660.744 416.79 660.132 418.83 658.908C420.938 657.616 422.57 655.848 423.726 653.604C424.882 651.36 425.46 648.776 425.46 645.852C425.46 642.928 424.882 640.344 423.726 638.1C422.57 635.856 420.938 634.122 418.83 632.898C416.79 631.606 414.41 630.96 411.69 630.96C409.106 630.96 406.76 631.606 404.652 632.898C402.544 634.122 400.878 635.856 399.654 638.1C398.498 640.344 397.92 642.894 397.92 645.75C397.92 648.742 398.498 651.36 399.654 653.604C400.878 655.848 402.51 657.616 404.55 658.908C406.658 660.132 409.038 660.744 411.69 660.744ZM474.55 695.22C469.654 695.22 465.37 694.608 461.698 693.384C458.026 692.228 455.17 690.426 453.13 687.978C451.158 685.598 450.172 682.64 450.172 679.104C450.172 676.724 450.784 674.48 452.008 672.372C453.232 670.264 455 668.36 457.312 666.66C459.692 664.892 462.65 663.396 466.186 662.172L471.388 668.904C468.26 669.924 465.982 671.182 464.554 672.678C463.194 674.242 462.514 675.908 462.514 677.676C462.514 679.24 463.024 680.566 464.044 681.654C465.132 682.742 466.56 683.524 468.328 684C470.164 684.544 472.204 684.816 474.448 684.816C476.624 684.816 478.494 684.544 480.058 684C481.69 683.456 482.948 682.64 483.832 681.552C484.784 680.532 485.26 679.308 485.26 677.88C485.26 676.044 484.614 674.548 483.322 673.392C482.03 672.236 479.446 671.522 475.57 671.25C472.102 670.978 469.008 670.604 466.288 670.128C463.636 669.584 461.29 668.972 459.25 668.292C457.21 667.544 455.476 666.728 454.048 665.844C452.688 664.96 451.566 664.076 450.682 663.192V660.846L461.596 649.116L471.49 652.278L458.638 664.926L462.514 658.194C463.262 658.602 463.976 659.01 464.656 659.418C465.404 659.758 466.322 660.098 467.41 660.438C468.498 660.71 469.926 660.982 471.694 661.254C473.462 661.526 475.706 661.764 478.426 661.968C482.914 662.376 486.586 663.226 489.442 664.518C492.366 665.81 494.508 667.544 495.868 669.72C497.228 671.828 497.908 674.446 497.908 677.574C497.908 680.634 497.058 683.49 495.358 686.142C493.726 688.862 491.176 691.038 487.708 692.67C484.24 694.37 479.854 695.22 474.55 695.22ZM474.55 656.358C470.266 656.358 466.56 655.542 463.432 653.91C460.372 652.21 457.992 649.966 456.292 647.178C454.66 644.322 453.844 641.16 453.844 637.692C453.844 634.224 454.66 631.096 456.292 628.308C457.992 625.452 460.372 623.174 463.432 621.474C466.56 619.774 470.266 618.924 474.55 618.924C478.902 618.924 482.608 619.774 485.668 621.474C488.796 623.174 491.176 625.452 492.808 628.308C494.44 631.096 495.256 634.224 495.256 637.692C495.256 641.16 494.44 644.322 492.808 647.178C491.176 649.966 488.796 652.21 485.668 653.91C482.608 655.542 478.902 656.358 474.55 656.358ZM474.55 645.852C477.202 645.852 479.344 645.172 480.976 643.812C482.608 642.452 483.424 640.446 483.424 637.794C483.424 635.142 482.608 633.136 480.976 631.776C479.344 630.348 477.202 629.634 474.55 629.634C471.966 629.634 469.824 630.348 468.124 631.776C466.492 633.136 465.676 635.142 465.676 637.794C465.676 640.446 466.492 642.452 468.124 643.812C469.824 645.172 471.966 645.852 474.55 645.852ZM483.118 629.94L480.874 620.148H501.988V628.308L483.118 629.94ZM535.869 672.78C530.701 672.78 526.111 671.692 522.099 669.516C518.155 667.272 515.061 664.178 512.817 660.234C510.641 656.222 509.553 651.598 509.553 646.362C509.553 640.99 510.641 636.264 512.817 632.184C515.061 628.036 518.155 624.806 522.099 622.494C526.043 620.114 530.633 618.924 535.869 618.924C540.969 618.924 545.423 620.046 549.231 622.29C553.039 624.534 555.997 627.56 558.105 631.368C560.213 635.176 561.267 639.494 561.267 644.322C561.267 645.002 561.267 645.784 561.267 646.668C561.267 647.484 561.199 648.334 561.063 649.218H519.345V640.854H547.395C547.191 637.522 546.001 634.904 543.825 633C541.717 631.096 539.065 630.144 535.869 630.144C533.557 630.144 531.415 630.688 529.443 631.776C527.471 632.796 525.907 634.394 524.751 636.57C523.663 638.746 523.119 641.5 523.119 644.832V647.79C523.119 650.578 523.629 653.026 524.649 655.134C525.737 657.174 527.233 658.772 529.137 659.928C531.041 661.016 533.251 661.56 535.767 661.56C538.283 661.56 540.357 661.016 541.989 659.928C543.689 658.84 544.947 657.446 545.763 655.746H559.839C558.887 658.942 557.289 661.832 555.045 664.416C552.801 667 550.047 669.04 546.783 670.536C543.519 672.032 539.881 672.78 535.869 672.78ZM572.544 671.556V620.148H584.785L586.111 629.634C587.335 627.39 588.865 625.486 590.701 623.922C592.605 622.358 594.747 621.134 597.127 620.25C599.575 619.366 602.261 618.924 605.185 618.924V633.51H600.493C598.453 633.51 596.549 633.748 594.781 634.224C593.081 634.7 591.585 635.482 590.293 636.57C589.001 637.59 588.015 639.018 587.335 640.854C586.655 642.69 586.315 645.002 586.315 647.79V671.556H572.544ZM614.281 671.556V598.116H628.051V671.556H614.281ZM648.002 693.996L660.446 665.844H657.386L636.782 620.148H651.776L666.464 653.298L679.724 620.148H694.31L662.588 693.996H648.002Z" fill="white"/>
<defs>
<filter id="filter0_i_2217_9132" x="308.5" y="275.913" width="160.459" height="292.843" filterUnits="userSpaceOnUse" color-interpolation-filters="sRGB">
<feFlood flood-opacity="0" result="BackgroundImageFix"/>
<feBlend mode="normal" in="SourceGraphic" in2="BackgroundImageFix" result="shape"/>
<feColorMatrix in="SourceAlpha" type="matrix" values="0 0 0 0 0 0 0 0 0 0 0 0 0 0 0 0 0 0 127 0" result="hardAlpha"/>
<feOffset dy="0.2"/>
<feGaussianBlur stdDeviation="2"/>
<feComposite in2="hardAlpha" operator="arithmetic" k2="-1" k3="1"/>
<feColorMatrix type="matrix" values="0 0 0 0 1 0 0 0 0 1 0 0 0 0 1 0 0 0 0.25 0"/>
<feBlend mode="normal" in2="shape" result="effect1_innerShadow_2217_9132"/>
</filter>
<filter id="filter1_i_2217_9132" x="491.041" y="275.913" width="160.459" height="292.843" filterUnits="userSpaceOnUse" color-interpolation-filters="sRGB">
<feFlood flood-opacity="0" result="BackgroundImageFix"/>
<feBlend mode="normal" in="SourceGraphic" in2="BackgroundImageFix" result="shape"/>
<feColorMatrix in="SourceAlpha" type="matrix" values="0 0 0 0 0 0 0 0 0 0 0 0 0 0 0 0 0 0 127 0" result="hardAlpha"/>
<feOffset dy="0.2"/>
<feGaussianBlur stdDeviation="2"/>
<feComposite in2="hardAlpha" operator="arithmetic" k2="-1" k3="1"/>
<feColorMatrix type="matrix" values="0 0 0 0 1 0 0 0 0 1 0 0 0 0 1 0 0 0 0.25 0"/>
<feBlend mode="normal" in2="shape" result="effect1_innerShadow_2217_9132"/>
</filter>
<linearGradient id="paint0_linear_2217_9132" x1="388.73" y1="275.913" x2="388.73" y2="568.556" gradientUnits="userSpaceOnUse">
<stop stop-color="#FF7C50"/>
<stop offset="1" stop-color="#FF4100"/>
</linearGradient>
<linearGradient id="paint1_linear_2217_9132" x1="571.27" y1="275.913" x2="571.27" y2="568.556" gradientUnits="userSpaceOnUse">
<stop stop-color="#FF7C50"/>
<stop offset="1" stop-color="#FF4100"/>
</linearGradient>
</defs>
</svg>
