<?xml version="1.0" encoding="UTF-8"?>
<svg version="1.1" xmlns="http://www.w3.org/2000/svg" width="512" height="512">
<path d="M0 0 C168.96 0 337.92 0 512 0 C512 168.96 512 337.92 512 512 C343.04 512 174.08 512 0 512 C0 343.04 0 174.08 0 0 Z " fill="#000000" transform="translate(0,0)"/>
<path d="M0 0 C23.1 0 46.2 0 70 0 C70 25.08 70 50.16 70 76 C75.94 74.68 81.88 73.36 88 72 C98.80255338 70.36687445 109.293781 69.59185725 120.1875 69.625 C120.90034149 69.62587616 121.61318298 69.62675232 122.34762573 69.62765503 C140.97851474 69.70271151 157.36282857 72.41673201 174 81 C174.9075 81.46148437 175.815 81.92296875 176.75 82.3984375 C196.4261384 93.30860398 209.60024656 111.51995597 216.3125 132.75 C216.89244 134.82854603 217.45550512 136.91188857 218 139 C218.28617188 140.01835937 218.57234375 141.03671875 218.8671875 142.0859375 C221.84717896 153.12609632 222.18668419 164.014147 222.18530273 175.4152832 C222.18749334 177.43136611 222.20574089 179.44690345 222.22460938 181.46289062 C222.23651442 189.53054374 221.6323317 197.10103235 220 205 C219.85393311 205.75289307 219.70786621 206.50578613 219.55737305 207.28149414 C214.12539021 234.41595087 201.80471553 256.06523881 178.96875 272.1328125 C152.63129216 289.27823678 119.33367747 291.701446 89 286 C80.71325816 283.82079847 73.4319416 280.34725939 65.93359375 276.29296875 C63.02461524 274.61847154 63.02461524 274.61847154 60 276 C58.56846957 277.55018286 58.56846957 277.55018286 57.25 279.5078125 C56.72897705 280.2407251 56.2079541 280.9736377 55.67114258 281.72875977 C54.843927 282.91489868 54.843927 282.91489868 54 284.125 C52.8376514 285.76201123 51.67488354 287.39872485 50.51171875 289.03515625 C49.92696777 289.86289551 49.3422168 290.69063477 48.73974609 291.54345703 C46.12441784 295.23633283 43.47555611 298.903951 40.8125 302.5625 C40.35552734 303.19881348 39.89855469 303.83512695 39.42773438 304.49072266 C36.22950282 308.88524859 36.22950282 308.88524859 34 310 C24.0707036 302.74245579 14.1988954 295.41972308 4.4375 287.9375 C-4.91216845 280.77412443 -14.41044749 273.83797151 -24 267 C-22.39836163 261.83015464 -19.1745961 258.05948779 -15.875 253.875 C-14.20993529 251.74434848 -12.55178256 249.61330099 -10.93283081 247.44731617 C-9 245 -9 245 -6.9380188 242.94192791 C1.44284235 233.71311756 0.11046288 223.06565773 0 211.27075195 C0.00761346 208.96372622 0.01873849 206.65670981 0.03309631 204.34971619 C0.06203464 198.11054672 0.04204451 191.87239231 0.0130806 185.63325906 C-0.0088459 179.10425855 0.01448614 172.57542117 0.03295898 166.0464325 C0.05919727 155.0957153 0.05504626 144.1452954 0.03076172 133.19458008 C0.00583574 121.92010851 -0.00222554 110.64583074 0.01220703 99.37133789 C0.01309224 98.67527088 0.01397745 97.97920388 0.01488948 97.26204393 C0.01943415 93.76974782 0.0243084 90.27745227 0.02934647 86.78515685 C0.0706537 57.85663973 0.0477341 28.9285202 0 0 Z " fill="#BA8743" transform="translate(37,101)"/>
<path d="M0 0 C23.1 0 46.2 0 70 0 C70.33 46.2 70.66 92.4 71 140 C81.36902098 128.03574502 91.69898025 116.07776447 101.6953125 103.8046875 C106.53019085 97.92088639 111.48419998 92.13652057 116.41601562 86.33398438 C121.89071133 79.89004794 127.31457907 73.41384749 132.65234375 66.85546875 C137.04003634 61.51869123 141.52385012 56.26261359 146 51 C155.75841771 55.37446311 164.10206672 64.64585945 172.1328125 71.63671875 C175.97291509 74.97953487 179.82587445 78.30707825 183.6875 81.625 C184.26346924 82.12169189 184.83943848 82.61838379 185.43286133 83.13012695 C188.21989504 85.52250707 191.02575337 87.84349028 194 90 C193.57003757 94.46086017 190.46462902 97.01480539 187.5 100.0625 C183.650756 104.11700661 179.93549475 108.1947679 176.4375 112.5625 C172.82987414 117.05735393 169.00738535 121.30592205 165.08349609 125.52197266 C162.11269934 128.73316873 159.30031679 132.02636841 156.5625 135.4375 C152.72383348 140.21008181 148.64200731 144.68116214 144.45703125 149.14624023 C140.43525112 153.46256419 136.69684228 157.93424174 133.03515625 162.5625 C130.83034751 165.20319224 128.46336508 167.60089661 126 170 C127.29277137 172.84731326 128.64574826 174.88961912 130.86987305 177.08105469 C131.73668953 177.94280304 131.73668953 177.94280304 132.62101746 178.82196045 C133.24494888 179.43243225 133.86888031 180.04290405 134.51171875 180.671875 C135.15816849 181.31312317 135.80461823 181.95437134 136.47065735 182.61505127 C138.53824026 184.66484762 140.61236224 186.70785445 142.6875 188.75 C144.74396246 190.77866262 146.79888319 192.8088256 148.8507843 194.84210205 C150.12576559 196.10502666 151.40340754 197.3652734 152.68424988 198.62225342 C155.71881867 201.6234374 158.62669633 204.67569456 161.41357422 207.90917969 C165.2618875 212.36447514 169.38295158 216.50929265 173.55859375 220.65625 C174.34774673 221.44398804 175.13689972 222.23172607 175.94996643 223.04333496 C178.44345012 225.53127102 180.94040784 228.01568624 183.4375 230.5 C185.14020587 232.1976841 186.84268207 233.89559858 188.54492188 235.59375 C192.69396412 239.7318328 196.84585576 243.86703935 201 248 C200.2469458 248.7523291 199.4938916 249.5046582 198.71801758 250.27978516 C196.64373971 252.35573989 194.57487377 254.43646409 192.51171875 256.5234375 C180.74097093 268.39210913 180.74097093 268.39210913 174.88671875 273.33203125 C171.59271087 276.24412518 168.5650756 279.42792656 165.4765625 282.5546875 C162.12151837 285.86739669 158.60267763 288.96086971 155 292 C148.26847672 288.97888062 143.73985398 282.77831728 139.0078125 277.29296875 C136.58927388 274.53094118 134.11108624 271.82602288 131.625 269.125 C125.97769888 262.98575021 120.39728218 256.78833624 114.828125 250.578125 C110.74305238 246.02949804 106.63574212 241.50259936 102.5 237 C97.63062801 231.6986948 92.80725342 226.35763664 88 221 C85.81154426 218.57130212 83.62271916 216.14293802 81.43359375 213.71484375 C77.94321244 209.82107969 74.47406773 205.9083262 71 202 C70.67 229.72 70.34 257.44 70 286 C46.9 286 23.8 286 0 286 C0 191.62 0 97.24 0 0 Z " fill="#BA8743" transform="translate(299,101)"/>
<path d="M0 0 C1.1278894 -0.01957764 1.1278894 -0.01957764 2.27856445 -0.03955078 C13.69736891 -0.05705853 24.78055674 4.0245062 33.25 11.8125 C42.74375504 22.17651591 45.27606097 34.88817963 45.1875 48.5 C45.18186035 49.41644287 45.1762207 50.33288574 45.17041016 51.27709961 C44.92285012 65.18090474 41.36253141 79.19796489 31.63671875 89.6640625 C20.20041837 99.5535462 7.56101409 102.00338967 -7.125 101.1875 C-16.11999126 99.76850405 -22.74502683 95.39618312 -28.4375 88.375 C-33.77727712 80.78613198 -35.25716868 71.95015299 -35.23852539 62.81494141 C-35.23844986 61.57410797 -35.23837433 60.33327454 -35.23829651 59.05484009 C-35.23319113 57.71624714 -35.22797515 56.37765461 -35.22265625 55.0390625 C-35.22078906 53.65758312 -35.21936658 52.27610308 -35.21836853 50.8946228 C-35.21456702 47.27461897 -35.20475716 43.65465583 -35.19366455 40.03466797 C-35.18339935 36.33431549 -35.17886 32.63395639 -35.17382812 28.93359375 C-35.16313258 21.68487736 -35.14608485 14.4361944 -35.125 7.1875 C-33.69742209 6.54377911 -32.26884051 5.90228376 -30.83984375 5.26171875 C-29.64669556 4.72550903 -29.64669556 4.72550903 -28.42944336 4.1784668 C-19.27095298 0.24009277 -9.80656171 0.09817581 0 0 Z " fill="#010100" transform="translate(142.125,228.8125)"/>
</svg>
