<?xml version="1.0" encoding="UTF-8"?>
<svg version="1.1" xmlns="http://www.w3.org/2000/svg" width="1124" height="494">
<path d="M0 0 C370.92 0 741.84 0 1124 0 C1124 163.02 1124 326.04 1124 494 C753.08 494 382.16 494 0 494 C0 330.98 0 167.96 0 0 Z " fill="#0A0C10" transform="translate(0,0)"/>
<path d="M0 0 C370.92 0 741.84 0 1124 0 C1124 1.98 1124 3.96 1124 6 C753.08 6 382.16 6 0 6 C0 4.02 0 2.04 0 0 Z " fill="#0A0C10" transform="translate(0,488)"/>
<path d="M0 0 C9.08425879 3.35506602 17.43874496 9.12553587 25.4921875 14.40234375 C28.81452548 16.51891109 32.25862772 18.35332871 35.73046875 20.2109375 C40.8050372 22.98770255 45.79913546 25.90220355 50.78979492 28.82666016 C54.5333035 31.01622447 58.27615585 33.17213308 62.125 35.171875 C69.12000565 38.83764412 75.22784418 42.22291128 78 50 C79.26194805 56.64183182 78.37555387 61.67021765 74.58203125 67.24609375 C70.48555576 71.78761843 65.49761486 74.51884212 60.1875 77.375 C52.86256777 81.37716543 45.63371062 85.52105041 38.4375 89.75 C29.73318243 94.85362589 20.9858578 99.87302632 12.1875 104.8125 C11.11363037 105.41739258 10.03976074 106.02228516 8.93334961 106.64550781 C7.93827393 107.20206055 6.94319824 107.75861328 5.91796875 108.33203125 C5.03906982 108.82421143 4.1601709 109.3163916 3.25463867 109.82348633 C-2.00769286 112.56947178 -7.18476054 112.59985278 -13 112 C-19.17841392 108.96696044 -22.77813237 104.43965024 -25 98 C-25.86736804 92.42048831 -25.87553256 87.46229359 -22.625 82.6875 C-18.75272629 78.27221779 -14.10703689 75.77837592 -9 73 C-5.82479482 71.1813751 -2.66352594 69.33884547 0.5 67.5 C2.15225265 66.54541522 3.80459437 65.59098459 5.45703125 64.63671875 C10.3374315 61.81122387 15.18401164 58.93416257 20 56 C14.51500183 52.18081609 8.92104836 48.79513428 3.03515625 45.6328125 C-18.62806966 33.97872185 -18.62806966 33.97872185 -22.9375 26.75 C-24.68577658 20.57961208 -24.690853 15.34122405 -22.875 9.1875 C-17.55554407 0.14442492 -9.97448657 -1.54450092 0 0 Z " fill="#46995E" transform="translate(602,61)"/>
<path d="M0 0 C3.05245289 1.83243617 6.16008439 3.56723446 9.25830078 5.32080078 C17.5875756 10.04216793 25.85642695 14.86194499 34.09423828 19.74072266 C37.89297585 21.98348272 41.71563798 24.15376574 45.60449219 26.23828125 C49.73328425 28.46390883 53.7813648 30.80702054 57.79199219 33.23828125 C58.85289062 33.88023437 59.91378906 34.5221875 61.00683594 35.18359375 C66.4259275 38.85579023 68.59657688 41.61405215 69.85449219 48.11328125 C70.58591895 55.00642441 70.09327701 59.5359328 65.85449219 65.11328125 C61.41813337 68.55372278 57.82476483 70.25703493 52.22949219 70.42578125 C51.43285156 70.46316406 50.63621094 70.50054687 49.81542969 70.5390625 C41.73951586 69.37775035 34.33036493 64.28690735 27.35449219 60.30078125 C25.87964355 59.46341431 25.87964355 59.46341431 24.375 58.60913086 C15.68351684 53.64638437 7.09590164 48.51416921 -1.45605469 43.31518555 C-7.15072371 39.8623455 -12.8927362 36.5587493 -18.76782227 33.42163086 C-25.53895883 29.69573284 -30.61188067 25.71416267 -33.14550781 18.11328125 C-33.97883427 12.07761674 -33.15799176 7.8969341 -29.64160156 2.90625 C-20.89972954 -7.57030159 -10.89236767 -6.64798611 0 0 Z " fill="#5281E9" transform="translate(478.1455078125,102.88671875)"/>
<path d="M0 0 C4.7102718 2.62833166 8.40037801 6.61325601 10.8125 11.4375 C10.88283769 13.31129605 10.8968022 15.18751102 10.875 17.0625 C10.86597656 18.06539062 10.85695313 19.06828125 10.84765625 20.1015625 C10.83605469 20.87242188 10.82445312 21.64328125 10.8125 22.4375 C10.1525 22.4375 9.4925 22.4375 8.8125 22.4375 C8.73 23.159375 8.6475 23.88125 8.5625 24.625 C7.39417772 29.00620857 5.53580969 31.42498716 1.58276367 33.74755859 C0.70338135 34.20984863 -0.17600098 34.67213867 -1.08203125 35.1484375 C-8.39601555 39.06158707 -15.52014787 43.28029995 -22.66601562 47.49023438 C-23.67986328 48.08513672 -24.69371094 48.68003906 -25.73828125 49.29296875 C-26.64231689 49.82559326 -27.54635254 50.35821777 -28.4777832 50.90698242 C-29.37198975 51.41205322 -30.26619629 51.91712402 -31.1875 52.4375 C-32.18056152 53.04634033 -33.17362305 53.65518066 -34.19677734 54.2824707 C-37.1875 55.4375 -37.1875 55.4375 -39.8371582 54.6640625 C-40.71202881 54.13554688 -41.58689941 53.60703125 -42.48828125 53.0625 C-43.95491211 52.20205078 -43.95491211 52.20205078 -45.45117188 51.32421875 C-46.45728516 50.70160156 -47.46339844 50.07898438 -48.5 49.4375 C-50.49606483 48.24995139 -52.4921582 47.06245075 -54.48828125 45.875 C-57.23339129 44.22169248 -59.97681806 42.56642111 -62.71020508 40.89379883 C-67.02524083 38.3474799 -70.09414781 36.79868024 -75.25 37.125 C-76.18972656 37.17011719 -77.12945312 37.21523437 -78.09765625 37.26171875 C-78.78730469 37.31972656 -79.47695313 37.37773438 -80.1875 37.4375 C-77.49512179 34.29801206 -74.07967085 32.56694798 -70.5 30.625 C-63.43946725 26.72570333 -56.4588548 22.70282868 -49.5 18.625 C-41.47381763 13.93123639 -33.43888206 9.25375703 -25.375 4.625 C-24.49175049 4.11541748 -23.60850098 3.60583496 -22.69848633 3.08081055 C-21.88404053 2.61457275 -21.06959473 2.14833496 -20.23046875 1.66796875 C-19.16348755 1.05538208 -19.16348755 1.05538208 -18.07495117 0.43041992 C-12.3390038 -2.58705491 -5.88648916 -2.64892012 0 0 Z " fill="#D4503F" transform="translate(538.1875,61.5625)"/>
<path d="M0 0 C0.86496094 0.45761719 1.72992187 0.91523437 2.62109375 1.38671875 C7.36844263 4.06545539 12.07010178 6.82018109 16.74682617 9.62036133 C23.0494955 13.38681263 28.36195437 16.44244544 35.8125 17.1875 C32.40723197 20.02645083 28.97630595 22.37961088 25.12890625 24.578125 C24.04335449 25.20122559 22.95780273 25.82432617 21.83935547 26.46630859 C20.12449951 27.44204834 20.12449951 27.44204834 18.375 28.4375 C17.18875267 29.11632858 16.00271836 29.79552954 14.81689453 30.47509766 C11.48453396 32.3835124 8.14844022 34.28534954 4.8125 36.1875 C3.39154857 37.00194413 1.97089933 37.81691616 0.55078125 38.6328125 C-2.69070439 40.49261959 -5.93773868 42.34219735 -9.1875 44.1875 C-9.87086426 44.57695801 -10.55422852 44.96641602 -11.25830078 45.36767578 C-13.46225375 46.6229813 -15.668361 47.87442323 -17.875 49.125 C-18.90197998 49.71063721 -18.90197998 49.71063721 -19.94970703 50.30810547 C-26.53802283 54.02991432 -31.67484186 54.96244468 -39.1875 54.1875 C-45.36591392 51.15446044 -48.96563237 46.62715024 -51.1875 40.1875 C-52.05486804 34.60798831 -52.06303256 29.64979359 -48.8125 24.875 C-44.94030195 20.45980406 -40.29466725 17.96540565 -35.1875 15.1875 C-32.81687569 13.83225157 -30.45428068 12.46366659 -28.0925293 11.09301758 C-26.44364962 10.13627595 -24.79285679 9.18282163 -23.13989258 8.2331543 C-18.6775768 5.66477921 -14.29695423 3.02334154 -9.99853516 0.18774414 C-6.10148191 -1.96461864 -3.91402698 -2.07131693 0 0 Z " fill="#EEBD41" transform="translate(628.1875,118.8125)"/>
<path d="M0 0 C18.66579634 0 18.66579634 0 24.62109375 5.49609375 C29.54164405 11.08572738 29.34358668 16.34050071 29.27734375 23.47265625 C28.91520958 28.07839078 27.94880652 31.41995049 25 35 C16.49187556 41.77177251 12.469256 40 0 40 C0 26.8 0 13.6 0 0 Z " fill="#5A6065" transform="translate(358,226)"/>
<path d="M0 0 C2.4375 1.5 2.4375 1.5 4 3 C4.33 2.34 4.66 1.68 5 1 C6.65 1 8.3 1 10 1 C10.1241194 5.58974462 10.21457876 10.17850086 10.2746582 14.76953125 C10.29971627 16.32927479 10.33377301 17.8889019 10.37719727 19.44824219 C10.43824193 21.69755843 10.46629426 23.9453156 10.48828125 26.1953125 C10.51408768 26.8861795 10.5398941 27.57704651 10.56648254 28.28884888 C10.568654 32.08508231 10.00201089 34.45545671 7.65698242 37.36279297 C4.35384441 40.64134638 2.32003369 42.29499078 -2.3125 42.375 C-7.04380288 42.29769113 -9.38715299 40.96438729 -13 38 C-12.67 36.68 -12.34 35.36 -12 34 C-11.43410156 34.32226562 -10.86820312 34.64453125 -10.28515625 34.9765625 C-6.59318504 36.63006072 -2.96718507 36.61728496 1 36 C3.62621177 33.7020647 4.39421398 31.3924017 5 28 C4.13375 28.495 3.2675 28.99 2.375 29.5 C-1.26109537 31.11604239 -3.09008091 31.65165318 -7 31 C-10.39126608 28.78263372 -12.48874255 26.97603696 -14.375 23.375 C-15.54034683 17.08212711 -16.16606033 11.33212067 -13.25 5.5 C-8.92539029 0.6948781 -6.69760935 -0.717601 0 0 Z " fill="#5D6369" transform="translate(283,236)"/>
<path d="M0 0 C1.65 0 3.3 0 5 0 C5 4.95 5 9.9 5 15 C6.65 14.01 8.3 13.02 10 12 C13.73420699 11.59990639 16.24398857 11.70790468 19.75 13.0625 C23.59452265 16.37306117 24.76659229 19.79701488 25.28515625 24.69140625 C25.45563582 30.13934024 25.32118973 34.4610407 22 39 C18.90163336 41.61639849 16.90077065 42.87389211 12.875 43.4375 C9.72683526 42.95843145 8.31484424 42.1367793 6 40 C5.67 40.66 5.34 41.32 5 42 C3.35 42 1.7 42 0 42 C0 28.14 0 14.28 0 0 Z " fill="#5E646A" transform="translate(906,224)"/>
<path d="M0 0 C3.97087583 1.87305464 5.59799462 3.08635142 7.375 7.125 C8.3684428 13.28434534 9.42676335 20.45190695 6 26 C2.81275035 28.86852468 0.50338992 30.86636534 -3.8125 31.25 C-7 31 -7 31 -12 28 C-12 32.62 -12 37.24 -12 42 C-13.65 42 -15.3 42 -17 42 C-17 28.47 -17 14.94 -17 1 C-14.33333333 1 -11.66666667 1 -9 1 C-5.89046621 -0.5547669 -3.43733239 -0.28644437 0 0 Z " fill="#5D6369" transform="translate(542,236)"/>
<path d="M0 0 C1.65 0 3.3 0 5 0 C5 13.86 5 27.72 5 42 C3.35 42 1.7 42 0 42 C-0.33 41.34 -0.66 40.68 -1 40 C-1.70125 40.495 -2.4025 40.99 -3.125 41.5 C-6.51250333 43.26739304 -8.2335258 43.6277457 -12 43 C-14.6875 40.8125 -14.6875 40.8125 -17 38 C-17.598125 37.278125 -18.19625 36.55625 -18.8125 35.8125 C-21.05950172 30.49065382 -20.84834674 24.5229022 -18.8125 19.125 C-16.8296404 15.70627656 -15.43695548 13.95281562 -12 12 C-6.43531484 11.30441436 -5.01834795 11.98899123 0 15 C0 10.05 0 5.1 0 0 Z " fill="#5E646A" transform="translate(720,224)"/>
<path d="M0 0 C4.31142745 2.23862579 7.67676187 4.71094499 10 9 C10.78060667 14.66338102 10.79127234 19.38919559 8.25 24.5625 C4.31175759 28.82892927 1.75294764 30.49812853 -4.046875 30.9921875 C-6.91283387 31.00365134 -8.5567641 30.51876826 -11 29 C-15.11214832 24.81795681 -17.1585949 21.6851945 -17.3125 15.8125 C-17.25447886 10.27873406 -16.37580663 7.37942482 -13 3 C-9.11567255 -0.34483753 -4.97192001 -0.87912142 0 0 Z " fill="#5D6369" transform="translate(221,236)"/>
<path d="M0 0 C5.10209922 2.69544864 8.17381037 5.5214311 10 11 C10.782602 16.57727757 10.64929242 20.81993474 7.3125 25.5 C3.7243029 29.65828448 1.01930454 30.70084377 -4.375 31.5 C-9.31369721 30.81880038 -11.75202108 28.66933835 -15 25 C-17.65615538 20.72705439 -17.52843571 15.89012725 -17 11 C-15.73478837 6.71233836 -14.62380522 4.56577683 -11.3125 1.5625 C-7.30232193 -0.32909343 -4.35245659 -0.86875381 0 0 Z " fill="#5D6268" transform="translate(253,236)"/>
<path d="M0 0 C5.08643801 2.73885123 8.17004027 5.5101208 10 11 C10.59987605 18.07853737 9.12784611 23.08561948 4.6640625 28.671875 C1.35776773 31.31070182 -2.91135258 31.22290134 -7 31 C-10.4375 29.25 -10.4375 29.25 -13 27 C-13.598125 26.505 -14.19625 26.01 -14.8125 25.5 C-17.8111171 21.71227313 -17.44318699 16.61583432 -17 12 C-16.26905659 8.29834161 -15.31797399 5.21239985 -12.48828125 2.609375 C-8.40089267 0.00079443 -4.86157452 -0.70713811 0 0 Z " fill="#5D6369" transform="translate(509,236)"/>
<path d="M0 0 C1.98 0 3.96 0 6 0 C6 11.55 6 23.1 6 35 C4.02 35 2.04 35 0 35 C-0.33 34.34 -0.66 33.68 -1 33 C-1.66 33.66 -2.32 34.32 -3 35 C-6.40325238 35.62643938 -9.59757237 35.62591829 -13 35 C-16.23793803 32.68822893 -17.74875737 29.75372789 -19 26 C-19.36878104 20.37608914 -19.1678247 16.86487365 -16 12 C-14.11247549 9.90275055 -12.87380448 9.1114366 -10.0703125 8.75390625 C-6.20182111 8.63345872 -4.26359874 8.82426751 -1 11 C-0.67 7.37 -0.34 3.74 0 0 Z " fill="#F5F6F7" transform="translate(612,424)"/>
<path d="M0 0 C1.98 0 3.96 0 6 0 C8.04301154 4.52381127 9.00956295 9.16371695 10 14 C10.27714844 13.07316406 10.55429687 12.14632813 10.83984375 11.19140625 C11.20207031 9.99386719 11.56429687 8.79632813 11.9375 7.5625 C12.47697266 5.77005859 12.47697266 5.77005859 13.02734375 3.94140625 C14 1 14 1 15 0 C16.99958364 -0.04080783 19.00045254 -0.04254356 21 0 C21.19335938 0.60328125 21.38671875 1.2065625 21.5859375 1.828125 C21.97652344 3.02695312 21.97652344 3.02695312 22.375 4.25 C22.63023437 5.03890625 22.88546875 5.8278125 23.1484375 6.640625 C23.95173667 8.86627958 24.89711662 10.90931672 26 13 C26.20496094 12.14535156 26.40992188 11.29070312 26.62109375 10.41015625 C26.89050781 9.30542969 27.15992188 8.20070313 27.4375 7.0625 C27.70433594 5.96035156 27.97117187 4.85820312 28.24609375 3.72265625 C29 1 29 1 30 0 C31.99958364 -0.04080783 34.00045254 -0.04254356 36 0 C34.60213923 8.84698726 32.39537771 17.38361708 30 26 C27.36 26 24.72 26 22 26 C20.68 21.05 19.36 16.1 18 11 C16.72500295 15.5613675 16.72500295 15.5613675 15.45727539 20.12475586 C14.11111111 24.88888889 14.11111111 24.88888889 13 26 C10.66702567 26.04092937 8.33294775 26.04241723 6 26 C4.9916593 22.41896026 3.99478914 18.83482575 3 15.25 C2.71382812 14.23421875 2.42765625 13.2184375 2.1328125 12.171875 C1.86210938 11.1921875 1.59140625 10.2125 1.3125 9.203125 C1.06113281 8.30239258 0.80976562 7.40166016 0.55078125 6.47363281 C0 4 0 4 0 0 Z " fill="#F0F1F2" transform="translate(544,433)"/>
<path d="M0 0 C2.33982139 2.00556119 4.11897853 3.5726285 5.625 6.25 C5.625 7.57 5.625 8.89 5.625 10.25 C3.3125 10.5625 3.3125 10.5625 0.625 10.25 C-1.0625 7.8125 -1.0625 7.8125 -2.375 5.25 C-4.78553402 4.04473299 -6.56049497 3.944182 -9.25 3.8125 C-10.11367187 3.75191406 -10.97734375 3.69132813 -11.8671875 3.62890625 C-14.6440134 4.06654138 -14.6440134 4.06654138 -16.6640625 6.8125 C-19.61882423 12.74900758 -19.1010069 18.7723268 -18.375 25.25 C-17.25741032 28.45242065 -15.80386548 30.82113452 -13.375 33.25 C-11.564715 33.34879565 -9.75047273 33.37971514 -7.9375 33.375 C-6.94878906 33.37757813 -5.96007812 33.38015625 -4.94140625 33.3828125 C-2.38590924 33.42228415 -2.38590924 33.42228415 -0.375 32.25 C0.09151207 30.12423218 0.09151207 30.12423218 0.25 27.6875 C0.37375 26.223125 0.4975 24.75875 0.625 23.25 C-2.345 23.25 -5.315 23.25 -8.375 23.25 C-8.375 21.6 -8.375 19.95 -8.375 18.25 C-3.425 18.25 1.525 18.25 6.625 18.25 C6.728125 20.6425 6.83125 23.035 6.9375 25.5 C7.00578003 26.62003418 7.00578003 26.62003418 7.07543945 27.76269531 C7.11328125 29.578125 7.11328125 29.578125 6.625 33.25 C2.15891638 37.88814379 -1.94691752 38.45220432 -8.1875 38.625 C-16.02928591 38.54415685 -16.02928591 38.54415685 -19.0625 36.25 C-24.00171541 29.8423692 -24.6604374 24.44870437 -24.8125 16.625 C-24.83489746 15.89635742 -24.85729492 15.16771484 -24.88037109 14.41699219 C-24.85802284 9.25337045 -23.71405094 6.3725154 -20.375 2.25 C-14.78728283 -2.81386868 -6.58137509 -3.41256486 0 0 Z " fill="#5C6268" transform="translate(191.375,227.75)"/>
<path d="M0 0 C4.33729795 2.25205855 7.13397371 4.4386024 9 9 C9 11.64 9 14.28 9 17 C2.4 17 -4.2 17 -11 17 C-10.34 19.64 -9.68 22.28 -9 25 C-7.25034642 25.05429959 -5.50020213 25.09292823 -3.75 25.125 C-2.77546875 25.14820313 -1.8009375 25.17140625 -0.796875 25.1953125 C2.04652777 24.99675085 3.52573292 24.30282205 6 23 C6.66 23.33 7.32 23.66 8 24 C6.96008872 27.01574271 6.03085171 27.97991051 3.3125 29.75 C-0.5047562 31.19047404 -2.95034145 31.50620732 -7 31 C-11.45561956 28.68650523 -13.79969577 26.47669966 -16 22 C-16.81276469 16.14955867 -16.8199032 10.76127354 -14.3125 5.375 C-9.8070986 0.74783099 -6.55157221 -0.80457904 0 0 Z " fill="#5C6167" transform="translate(748,236)"/>
<path d="M0 0 C3.68851078 1.7604256 7.14505654 3.82378029 8.6875 7.75 C9.11191114 10.80576019 9 13.9149076 9 17 C2.4 17 -4.2 17 -11 17 C-9.68 19.64 -8.36 22.28 -7 25 C0.23691506 25.29684571 0.23691506 25.29684571 7 23 C7.33 24.32 7.66 25.64 8 27 C2.96205076 30.19848003 -0.97364427 31.69001356 -6.953125 30.6796875 C-10.90825624 29.36634239 -13.01895916 26.62929044 -15.10546875 23.1640625 C-17.05065892 18.45823126 -16.87736794 12.63210383 -15.27734375 7.83203125 C-11.75096773 1.13619985 -7.35714299 -0.78826532 0 0 Z " fill="#5E6369" transform="translate(409,236)"/>
<path d="M0 0 C4.09613637 1.80992072 6.73195328 4.1359204 9 8 C9 10.97 9 13.94 9 17 C2.4 17 -4.2 17 -11 17 C-9.59628479 22.7018576 -9.59628479 22.7018576 -7 25 C-4.9280863 25.31889832 -4.9280863 25.31889832 -2.625 25.25 C-1.85414063 25.25515625 -1.08328125 25.2603125 -0.2890625 25.265625 C2.1991075 24.97689537 3.78438426 24.11252194 6 23 C6.66 23.33 7.32 23.66 8 24 C8 24.99 8 25.98 8 27 C2.64061209 30.57292527 -0.54642102 31.72862988 -7 31 C-11.08448998 29.4219016 -13.24730998 26.98560927 -15.2734375 23.08984375 C-17.07544322 17.90665524 -16.71427186 12.25733944 -14.875 7.125 C-11.23003725 1.05006209 -6.98798813 -0.88938031 0 0 Z " fill="#5D6268" transform="translate(465,236)"/>
<path d="M0 0 C3.78171013 2.03630545 7.09528802 4.08475871 9 8 C9 10.97 9 13.94 9 17 C2.4 17 -4.2 17 -11 17 C-9.46687233 21.31608796 -9.46687233 21.31608796 -7 25 C-5.00009484 25.19989763 -5.00009484 25.19989763 -2.6875 25.1875 C-1.90761719 25.20167969 -1.12773437 25.21585937 -0.32421875 25.23046875 C2.20556881 24.97961587 3.75665445 24.13363091 6 23 C6.66 23.33 7.32 23.66 8 24 C6.96008872 27.01574271 6.03085171 27.97991051 3.3125 29.75 C-1.38026052 31.52085303 -4.98422615 31.79693385 -9.6875 29.9375 C-13.66527467 26.60476987 -15.68594596 23.40425813 -16.3515625 18.30859375 C-16.51406498 12.87953351 -16.30270567 8.51369776 -13 4 C-8.70146264 0.28762682 -5.6468782 -0.80669689 0 0 Z " fill="#5C6268" transform="translate(329,236)"/>
<path d="M0 0 C3.43615111 2.12017834 5.80717883 4.09622164 7 8 C7 10.64 7 13.28 7 16 C0.4 16 -6.2 16 -13 16 C-11.79321679 22.36866419 -11.79321679 22.36866419 -10 24 C-8.39951798 24.12535652 -6.79284072 24.17574787 -5.1875 24.1875 C-4.31480469 24.20167969 -3.44210937 24.21585937 -2.54296875 24.23046875 C0.10919085 23.99010406 1.72464999 23.34187309 4 22 C4.33 23.32 4.66 24.64 5 26 C0.13167558 29.1793139 -3.00731871 30.87166273 -9 30 C-13.45321728 27.68775257 -15.80774572 25.47954848 -18 21 C-18.3984375 17.84375 -18.3984375 17.84375 -18.375 14.5 C-18.38273438 13.3965625 -18.39046875 12.293125 -18.3984375 11.15625 C-17.79081291 6.34291014 -15.92270242 3.834826 -12.375 0.625 C-7.9090377 -1.52527814 -4.71402327 -1.36550121 0 0 Z " fill="#5D6268" transform="translate(574,237)"/>
<path d="M0 0 C2.33982139 2.00556119 4.11897853 3.5726285 5.625 6.25 C5.625 7.57 5.625 8.89 5.625 10.25 C3.975 10.25 2.325 10.25 0.625 10.25 C0.521875 9.63125 0.41875 9.0125 0.3125 8.375 C-0.25025373 5.88473516 -0.25025373 5.88473516 -3.375 4.25 C-6.08514561 3.97052691 -6.08514561 3.97052691 -9 4.0625 C-10.47339844 4.07216797 -10.47339844 4.07216797 -11.9765625 4.08203125 C-14.32677549 3.98311562 -14.32677549 3.98311562 -15.375 5.25 C-15.44648199 6.60243917 -15.45899454 7.95834367 -15.4375 9.3125 C-15.416875 10.611875 -15.39625 11.91125 -15.375 13.25 C-14.7459375 13.42015625 -14.116875 13.5903125 -13.46875 13.765625 C-6.96939754 15.60580311 -0.54072454 17.47999103 4.625 22 C6.14670549 25.42383734 6.3956562 28.62719563 5.625 32.25 C2.82277572 35.93292334 0.1142448 38.10158854 -4.375 39.25 C-10.00960206 39.69719064 -13.52406044 39.44721016 -18.375 36.25 C-21.62992571 32.90941835 -22.375 32.02187019 -22.375 27.25 C-20.725 27.25 -19.075 27.25 -17.375 27.25 C-17.148125 28.054375 -16.92125 28.85875 -16.6875 29.6875 C-15.65034506 32.41610905 -15.65034506 32.41610905 -13.25 33.0625 C-9.57065831 33.30245707 -6.06548674 33.43149935 -2.375 33.25 C0.1904594 30.6845406 0.16546087 28.77313332 0.625 25.25 C-2.18430873 24.12307197 -4.99697988 23.00952932 -7.8203125 21.91796875 C-9.03460937 21.42941406 -10.24890625 20.94085938 -11.5 20.4375 C-13.32917969 19.71626953 -13.32917969 19.71626953 -15.1953125 18.98046875 C-18.691096 17.07797233 -19.81546243 15.86126962 -21.375 12.25 C-22.00485866 9.4786219 -21.98116082 7.02823709 -21.375 4.25 C-16.14184828 -2.5821703 -7.5897255 -3.93541322 0 0 Z " fill="#5D6369" transform="translate(640.375,227.75)"/>
<path d="M0 0 C11 0 11 0 14.125 1.75 C17.54168939 5.85002727 17.21354839 10.15660459 17.3125 15.375 C17.34988281 16.66148437 17.38726562 17.94796875 17.42578125 19.2734375 C16.93438001 23.57432544 15.7098512 25.67175975 13 29 C11 30 11 30 0 30 C0 20.1 0 10.2 0 0 Z " fill="#0B0D11" transform="translate(364,231)"/>
<path d="M0 0 C4.33540724 2.78704751 4.33540724 2.78704751 5.625 4.6875 C6.3125 8.375 6.3125 8.375 6.625 11.6875 C4.975 11.6875 3.325 11.6875 1.625 11.6875 C1.3775 10.924375 1.13 10.16125 0.875 9.375 C-0.58156336 6.24338878 -1.23253255 5.13786959 -4.375 3.6875 C-7.57358225 3.43420527 -10.39383951 3.46459438 -13.375 4.6875 C-17.24976716 9.13878961 -17.8790705 12.43596076 -17.75 18.25 C-17.73710938 19.53003906 -17.72421875 20.81007812 -17.7109375 22.12890625 C-17.26297545 26.87417863 -15.99906019 29.75140971 -13.375 33.6875 C-10.81814972 34.20443471 -10.81814972 34.20443471 -7.9375 34.125 C-6.48537109 34.15400391 -6.48537109 34.15400391 -5.00390625 34.18359375 C-2.2556083 33.92902391 -2.2556083 33.92902391 -0.5703125 31.80078125 C0.59698459 29.73703051 1.20983902 28.01240148 1.625 25.6875 C3.275 25.6875 4.925 25.6875 6.625 25.6875 C6.23624961 31.13000545 4.45947004 33.85302996 0.625 37.6875 C-3.32758663 39.97583963 -6.86405339 40.08319707 -11.375 39.6875 C-16.85153605 37.64722186 -19.82569495 34.73595274 -22.4609375 29.55078125 C-23.6793431 25.73415174 -23.74307927 22.23288099 -23.75 18.25 C-23.77449219 17.51201172 -23.79898438 16.77402344 -23.82421875 16.01367188 C-23.85844826 9.59563916 -21.57472279 6.15385585 -17.3125 1.375 C-12.54460675 -2.77768122 -5.5606473 -2.16247395 0 0 Z " fill="#5E646A" transform="translate(848.375,227.3125)"/>
<path d="M0 0 C0.99 0.66 1.98 1.32 3 2 C3 1.34 3 0.68 3 0 C3.99 0 4.98 0 6 0 C6.11643304 3.89558088 6.18732909 7.79071258 6.25 11.6875 C6.30027344 13.34168945 6.30027344 13.34168945 6.3515625 15.02929688 C6.44950793 23.13428103 6.44950793 23.13428103 4.3125 27.25 C1.52759453 29.35749603 0.20044445 29.53950292 -3.25 29.3125 C-4.14203125 29.26738281 -5.0340625 29.22226562 -5.953125 29.17578125 C-6.62859375 29.11777344 -7.3040625 29.05976563 -8 29 C-8.66 27.68 -9.32 26.36 -10 25 C-6.66666667 25 -3.33333333 25 0 25 C0.66 23.68 1.32 22.36 2 21 C1.39671875 21.05800781 0.7934375 21.11601562 0.171875 21.17578125 C-6.21468476 21.53631285 -6.21468476 21.53631285 -9.5625 19.25 C-11.73458938 14.33918924 -11.98697941 9.27598552 -11 4 C-7.68585347 -0.3019483 -5.34861181 -0.58348493 0 0 Z " fill="#5C6167" transform="translate(800,318)"/>
<path d="M0 0 C1.65 0 3.3 0 5 0 C5 1.32 5 2.64 5 4 C5.66 4 6.32 4 7 4 C7 3.34 7 2.68 7 2 C10.66244303 -0.34396354 13.72394153 -0.52512999 18 0 C20.63016161 2.1727422 22.47336894 3.94673788 24 7 C24.08449628 8.7404417 24.10723024 10.48409722 24.09765625 12.2265625 C24.09443359 13.2578125 24.09121094 14.2890625 24.08789062 15.3515625 C24.07951172 16.43179688 24.07113281 17.51203125 24.0625 18.625 C24.05798828 19.71296875 24.05347656 20.8009375 24.04882812 21.921875 C24.03701776 24.61463789 24.02054778 27.30729188 24 30 C22.02 30 20.04 30 18 30 C18 22.08 18 14.16 18 6 C14.7 6 11.4 6 8 6 C6.31699331 7.68300669 6.77190923 9.82008727 6.68359375 12.12890625 C6.64169922 13.16337891 6.59980469 14.19785156 6.55664062 15.26367188 C6.51732422 16.35228516 6.47800781 17.44089844 6.4375 18.5625 C6.37272461 20.2012207 6.37272461 20.2012207 6.30664062 21.87304688 C6.20017932 24.58189564 6.09816484 27.29083992 6 30 C4.02 30 2.04 30 0 30 C0 20.1 0 10.2 0 0 Z " fill="#585E64" transform="translate(762,236)"/>
<path d="M0 0 C1.65 0 3.3 0 5 0 C5.02505615 0.68626465 5.0501123 1.3725293 5.07592773 2.07958984 C5.19171427 5.17825817 5.31451885 8.27660923 5.4375 11.375 C5.47681641 12.45523438 5.51613281 13.53546875 5.55664062 14.6484375 C5.59853516 15.6796875 5.64042969 16.7109375 5.68359375 17.7734375 C5.72025146 18.72653809 5.75690918 19.67963867 5.79467773 20.66162109 C5.85763465 23.02132349 5.85763465 23.02132349 7 25 C8.64630328 24.85957123 10.29204179 24.71250671 11.9375 24.5625 C12.85402344 24.48128906 13.77054688 24.40007812 14.71484375 24.31640625 C16.96159732 24.23955024 16.96159732 24.23955024 18 23 C18.15740605 21.29436222 18.25093392 19.58272756 18.31640625 17.87109375 C18.35830078 16.83662109 18.40019531 15.80214844 18.44335938 14.73632812 C18.48267578 13.64771484 18.52199219 12.55910156 18.5625 11.4375 C18.60568359 10.34501953 18.64886719 9.25253906 18.69335938 8.12695312 C18.79982068 5.41810436 18.90183516 2.70916008 19 0 C20.65 0 22.3 0 24 0 C24 9.9 24 19.8 24 30 C22.35 30 20.7 30 19 30 C19 29.34 19 28.68 19 28 C17.7934375 28.7734375 17.7934375 28.7734375 16.5625 29.5625 C12.66743917 31.13419121 10.24637918 31.22349364 6.1484375 31.0078125 C3.37997207 29.70915053 2.14520382 27.95392348 0.75439453 25.26855469 C-0.78105475 20.65127485 -0.40521536 15.87119131 -0.25 11.0625 C-0.23195313 9.99708984 -0.21390625 8.93167969 -0.1953125 7.83398438 C-0.14845557 5.22171071 -0.08286926 2.61133774 0 0 Z " fill="#5C6267" transform="translate(670,236)"/>
<path d="M0 0 C2.91927604 1.3961755 4.72202996 2.72202996 7 5 C7 6.32 7 7.64 7 9 C5.35 9 3.7 9 2 9 C1.34 7.35 0.68 5.7 0 4 C-5.01535052 4.32960216 -5.01535052 4.32960216 -9 7 C-9.17560347 9.05475585 -9.17560347 9.05475585 -8 11 C-5.10047093 12.44702432 -5.10047093 12.44702432 -1.625 13.5 C5.72331505 15.91142046 5.72331505 15.91142046 8 20 C8.6875 22.9375 8.6875 22.9375 8 26 C4.56821818 29.39631121 0.64534865 31.29748063 -4.1875 31.5 C-9.06255704 30.86064826 -11.53538799 29.6161236 -14.8125 26 C-16 24 -16 24 -16 21 C-14.02 21 -12.04 21 -10 21 C-9.34 22.32 -8.68 23.64 -8 25 C-5.03 25 -2.06 25 1 25 C2.08084521 21.36380344 2.08084521 21.36380344 2 19 C1.19175781 18.82984375 0.38351562 18.6596875 -0.44921875 18.484375 C-11.88770999 15.89036251 -11.88770999 15.89036251 -15 12 C-15.625 9.0625 -15.625 9.0625 -15 6 C-10.4332989 0.59206449 -7.01736918 -0.78120425 0 0 Z " fill="#5C6167" transform="translate(952,236)"/>
<path d="M0 0 C2.31 0 4.62 0 7 0 C7 9.57 7 19.14 7 29 C12.28 29 17.56 29 23 29 C23 30.98 23 32.96 23 35 C15.41 35 7.82 35 0 35 C0 23.45 0 11.9 0 0 Z " fill="#F1F2F3" transform="translate(508,424)"/>
<path d="M0 0 C2.75329021 1.79562405 4.52627461 3.05254922 6 6 C6.35032356 11.34243433 6.4561069 14.64786539 3 19 C-0.1783192 21.11887947 -2.19229741 21.55588311 -5.9921875 21.4296875 C-8.83914307 20.82041685 -10.499251 19.34450624 -12.14453125 16.98046875 C-13.86142909 13.00573266 -13.97622726 9.19080418 -13 5 C-9.92647239 0.14079613 -5.47153249 -0.89534168 0 0 Z " fill="#5C6268" transform="translate(747,318)"/>
<path d="M0 0 C2.875 2.4375 2.875 2.4375 5 5 C5.33 5.33 5.66 5.66 6 6 C6.51957452 12.13097935 5.98843829 15.04466757 2 20 C0.43058802 21.56941198 -1.14134994 21.2449847 -3.3125 21.3125 C-6.68170775 21.28036129 -7.69529979 21.22090765 -10.5 19.1875 C-13.29092204 15.11740536 -13.70340971 10.81132239 -13 6 C-9.40129212 0.36202432 -6.63748168 -0.67499814 0 0 Z " fill="#5A5F65" transform="translate(377,318)"/>
<path d="M0 0 C2.1640625 0.59375 2.1640625 0.59375 4.7265625 2.65625 C6.59118027 6.46655588 6.87244426 9.42779058 6.1640625 13.59375 C4.52719065 17.17927881 3.47433667 18.38690055 0.1640625 20.59375 C-3.46560281 21.15722627 -6.75874794 21.33431782 -9.8359375 19.21875 C-10.8359375 17.59375 -10.8359375 17.59375 -10.8359375 15.59375 C-11.4959375 15.59375 -12.1559375 15.59375 -12.8359375 15.59375 C-13.40301067 5.9535061 -13.40301067 5.9535061 -9.8359375 1.59375 C-6.08467909 -0.90708894 -4.31526857 -0.61847497 0 0 Z " fill="#5B6066" transform="translate(778.8359375,318.40625)"/>
<path d="M0 0 C2.75329021 1.79562405 4.52627461 3.05254922 6 6 C6.50866466 12.10397596 6.05703618 15.10769166 2 20 C-1.25128121 21.6256406 -4.49781865 21.68302581 -8 21 C-11.24712599 18.36171014 -12.63419615 16.84520524 -13.44140625 12.7734375 C-13.65338056 8.68438461 -13.32854541 6.52567265 -11.125 3 C-7.4943374 -0.41709421 -4.9378642 -0.41846307 0 0 Z " fill="#575C62" transform="translate(596,318)"/>
<path d="M0 0 C1.65 0 3.3 0 5 0 C5.01981934 0.65073486 5.03963867 1.30146973 5.06005859 1.97192383 C5.15529299 4.91919151 5.26497818 7.86574885 5.375 10.8125 C5.4059375 11.83666016 5.436875 12.86082031 5.46875 13.91601562 C5.50742187 14.89892578 5.54609375 15.88183594 5.5859375 16.89453125 C5.6173584 17.80050049 5.6487793 18.70646973 5.68115234 19.63989258 C5.86027919 22.26525392 5.86027919 22.26525392 8 25 C12.34586828 25.39507893 14.32003497 25.45331002 18 23 C18.50843062 20.68246412 18.50843062 20.68246412 18.51171875 17.9921875 C18.54716797 17.00605469 18.58261719 16.01992187 18.61914062 15.00390625 C18.64169922 13.97136719 18.66425781 12.93882812 18.6875 11.875 C18.72166016 10.83472656 18.75582031 9.79445312 18.79101562 8.72265625 C18.87367058 6.14854493 18.94276155 3.57478171 19 1 C20.32 1 21.64 1 23 1 C23 10.57 23 20.14 23 30 C21.68 30 20.36 30 19 30 C19 29.34 19 28.68 19 28 C18.154375 28.495 17.30875 28.99 16.4375 29.5 C12.51760133 31.21050124 10.2289006 31.61511282 6 31 C3.125 28.5625 3.125 28.5625 1 26 C0.67 25.67 0.34 25.34 0 25 C-0.08737645 23.14630389 -0.10698153 21.28932459 -0.09765625 19.43359375 C-0.09443359 18.30888672 -0.09121094 17.18417969 -0.08789062 16.02539062 C-0.07951172 14.84138672 -0.07113281 13.65738281 -0.0625 12.4375 C-0.05798828 11.24962891 -0.05347656 10.06175781 -0.04882812 8.83789062 C-0.03699675 5.89187774 -0.02051287 2.94596319 0 0 Z " fill="#5F656B" transform="translate(875,236)"/>
<path d="M0 0 C3.9307074 0.90078711 5.45182539 2.62969047 8 5.6875 C9.59777918 8.88305836 9.37410964 12.21086041 9 15.6875 C6.75 21.3125 6.75 21.3125 4 22.6875 C-3.0578999 23.37052257 -3.0578999 23.37052257 -6.5 20.875 C-8.73387091 16.12802431 -8.86585064 11.83742901 -8 6.6875 C-6.28018044 2.85266829 -4.18609044 0.95931239 0 0 Z " fill="#0F1115" transform="translate(217,239.3125)"/>
<path d="M0 0 C3.62129338 0.86767624 4.97000055 2.40608971 6.97265625 5.47265625 C8.04689754 11.09176452 7.10721424 15.65025934 3.97265625 20.47265625 C0.73261755 22.0926756 -2.53604895 22.16953525 -6.02734375 21.47265625 C-9.55175568 18.12446491 -10.30234692 15.11399615 -10.52734375 10.41015625 C-10.36734874 7.09525968 -9.99215543 5.39934726 -8.52734375 2.34765625 C-5.66449858 0.20052237 -3.57911959 -0.26090778 0 0 Z " fill="#0D1014" transform="translate(507.02734375,240.52734375)"/>
<path d="M0 0 C2.875 1.75 2.875 1.75 5 5 C5.86357403 10.4367617 5.82127835 15.22056358 3.5 20.25 C0.47294253 22.36894023 -1.446483 22.74673081 -5.09375 22.4609375 C-7 22 -7 22 -9.5 20.25 C-11.82127835 15.22056358 -11.86357403 10.4367617 -11 5 C-8.0241951 0.44876898 -5.41204351 -1.12750906 0 0 Z " fill="#0E1014" transform="translate(252,240)"/>
<path d="M0 0 C2.62109375 1.5625 2.62109375 1.5625 5 4 C5.62890625 7.56640625 5.62890625 7.56640625 5.5625 11.5625 C5.57345703 12.23474609 5.58441406 12.90699219 5.59570312 13.59960938 C5.54807063 16.79733763 5.41033194 18.56319503 3.18359375 20.93359375 C-0.09720256 22.53584311 -2.40813283 22.51312388 -6 22 C-8.4375 20.25 -8.4375 20.25 -10 17 C-10.84075248 11.25750193 -11.11445649 6.65576393 -7.8125 1.75 C-4.71485001 -0.17742666 -3.54604095 -0.79785921 0 0 Z " fill="#0F1115" transform="translate(283,240)"/>
<path d="M0 0 C3.01357129 0.73459415 4.17969526 2.04394266 6.03515625 4.49609375 C6.53125 7.3359375 6.53125 7.3359375 6.47265625 10.43359375 C6.47136719 11.45324219 6.47007812 12.47289062 6.46875 13.5234375 C5.97311865 16.92141458 5.20141305 18.83290053 3.03515625 21.49609375 C0.87890625 22.125 0.87890625 22.125 -1.46484375 22.05859375 C-2.23828125 22.05988281 -3.01171875 22.06117188 -3.80859375 22.0625 C-5.96484375 21.49609375 -5.96484375 21.49609375 -7.72265625 19.90234375 C-9.40520081 16.64307503 -9.36289202 14.08674417 -9.33984375 10.43359375 C-9.34757813 9.20511719 -9.3553125 7.97664062 -9.36328125 6.7109375 C-8.96484375 3.49609375 -8.96484375 3.49609375 -7.6875 1.58984375 C-5.24863733 0.04135951 -2.83085824 0.08181671 0 0 Z " fill="#0E1115" transform="translate(919.96484375,240.50390625)"/>
<path d="M0 0 C2.5 1.3125 2.5 1.3125 4 4 C4.67648974 9.0542337 4.70980251 13.45695107 2.5625 18.125 C1 20 1 20 0 21 C-7.22749021 21.46628969 -7.22749021 21.46628969 -9.734375 19.953125 C-11.67061859 16.96509477 -11.43398595 13.94084699 -11.375 10.5 C-11.38660156 9.82324219 -11.39820313 9.14648438 -11.41015625 8.44921875 C-11.39314231 5.57386283 -11.32606683 3.4955817 -9.72265625 1.05859375 C-6.66903824 -0.8178926 -3.40766407 -0.57594322 0 0 Z " fill="#0D0F13" transform="translate(541,241)"/>
<path d="M0 0 C2.1875 1.0625 2.1875 1.0625 4 3 C4.40894836 5.67019224 4.56077709 7.8410023 4.5 10.5 C4.51546875 11.17675781 4.5309375 11.85351562 4.546875 12.55078125 C4.5215057 15.76634011 4.42450383 17.54622004 2.1875 19.9375 C-1.0960764 21.53237997 -3.40816658 21.51311906 -7 21 C-9.4375 19.1875 -9.4375 19.1875 -11 16 C-11.75096692 10.83613471 -11.75341404 6.53696465 -9.4375 1.8125 C-6.08791505 -0.67821701 -4.08298987 -0.58328427 0 0 Z " fill="#0E1014" transform="translate(716,241)"/>
<path d="M0 0 C1.65 0 3.3 0 5 0 C10.55580866 13.44874715 10.55580866 13.44874715 11 21 C11.66 21 12.32 21 13 21 C13.11214844 19.99839844 13.22429687 18.99679688 13.33984375 17.96484375 C13.91172035 13.96170753 15.15365825 10.35553549 16.5625 6.5625 C17.01753906 5.32628906 17.47257812 4.09007812 17.94140625 2.81640625 C18.29074219 1.88699219 18.64007813 0.95757812 19 0 C20.65 0 22.3 0 24 0 C23.54525666 1.60909181 23.0886159 3.21766086 22.625 4.82421875 C22.20003424 6.3036308 21.7836734 7.78553598 21.375 9.26953125 C19.4387887 16.07927438 16.8205184 22.51169285 14 29 C12.35 28.67 10.7 28.34 9 28 C8.60167969 26.78183594 8.20335937 25.56367188 7.79296875 24.30859375 C7.25797544 22.68484214 6.72281004 21.06114722 6.1875 19.4375 C5.92646484 18.63763672 5.66542969 17.83777344 5.39648438 17.01367188 C4.16849345 13.29937833 2.89947958 9.67005622 1.30078125 6.09765625 C0 3 0 3 0 0 Z " fill="#5D6369" transform="translate(421,237)"/>
<path d="M0 0 C2.69990662 1.79993774 4.5418865 3.083773 6 6 C6 7.98 6 9.96 6 12 C1.38 12 -3.24 12 -8 12 C-7.34 13.65 -6.68 15.3 -6 17 C-0.42169984 17.12469099 -0.42169984 17.12469099 5 16 C4.625 17.9375 4.625 17.9375 4 20 C0.5025229 21.74873855 -3.18376722 21.54611607 -7 21 C-10.0625 19.1875 -10.0625 19.1875 -12 16 C-12.85884042 11.59348799 -13.32488273 7.11167315 -10.85546875 3.17578125 C-7.47288436 0.0609476 -4.44094651 -0.85039401 0 0 Z " fill="#575D62" transform="translate(336,318)"/>
<path d="M0 0 C1.65 0 3.3 0 5 0 C5 2.31 5 4.62 5 7 C6.98 7 8.96 7 11 7 C11 8.32 11 9.64 11 11 C9.02 11 7.04 11 5 11 C5.33 17.6 5.66 24.2 6 31 C7.65 31.33 9.3 31.66 11 32 C10.505 34.475 10.505 34.475 10 37 C6.72867371 37.2973933 4.66929439 37.40157663 1.8125 35.6875 C-1.11411262 31.34803991 -0.41820457 26.84789245 -0.25 21.75 C-0.23195313 20.71875 -0.21390625 19.6875 -0.1953125 18.625 C-0.14822712 16.08238936 -0.0824805 13.54166838 0 11 C-1.65 11 -3.3 11 -5 11 C-5 9.68 -5 8.36 -5 7 C-3.35 7 -1.7 7 0 7 C0 4.69 0 2.38 0 0 Z " fill="#5E6369" transform="translate(654,230)"/>
<path d="M0 0 C4.3573001 0.95068366 5.88017784 2.10775329 8.4375 5.75 C8.4375 8.06 8.4375 10.37 8.4375 12.75 C3.8175 12.75 -0.8025 12.75 -5.5625 12.75 C-4.9025 14.07 -4.2425 15.39 -3.5625 16.75 C0.35394812 17.69284862 3.60173878 18.13087404 7.4375 16.75 C7.0625 18.6875 7.0625 18.6875 6.4375 20.75 C2.93169924 22.50290038 -0.74629058 22.42770616 -4.5625 21.75 C-8.60440272 18.45048757 -9.35357444 16.94657368 -10.25 11.8125 C-9.95998741 7.63148513 -8.22607231 5.01077247 -5.34375 2.046875 C-3.5625 0.75 -3.5625 0.75 0 0 Z " fill="#5C6167" transform="translate(561.5625,317.25)"/>
<path d="M0 0 C3.10787874 0.1828164 4.64747363 0.46391068 7.1875 2.1875 C9.1875 5.1875 9.1875 5.1875 9.1875 12.1875 C4.5675 12.1875 -0.0525 12.1875 -4.8125 12.1875 C-4.1525 13.8375 -3.4925 15.4875 -2.8125 17.1875 C-1.554375 17.1875 -0.29625 17.1875 1 17.1875 C3.39583333 17.1875 5.79166667 17.1875 8.1875 17.1875 C7.1875 20.1875 7.1875 20.1875 5.1875 21.1875 C2.10441431 21.66601428 -0.73510124 21.72869771 -3.8125 21.1875 C-7.14233304 18.53722472 -8.41347417 17.06720848 -9.28515625 12.9609375 C-9.57500863 8.51653427 -9.25473316 6.73178697 -6.375 3.1875 C-5.529375 2.5275 -4.68375 1.8675 -3.8125 1.1875 C-2.8125 0.1875 -2.8125 0.1875 0 0 Z " fill="#5A6066" transform="translate(407.8125,317.8125)"/>
<path d="M0 0 C1.65 0 3.3 0 5 0 C5 2.31 5 4.62 5 7 C6.65 7 8.3 7 10 7 C10 7.99 10 8.98 10 10 C8.35 10 6.7 10 5 10 C5.33 16.93 5.66 23.86 6 31 C7.65 31.33 9.3 31.66 11 32 C10.67 33.65 10.34 35.3 10 37 C7.25 37.3125 7.25 37.3125 4 37 C1.38886245 34.79918406 0.1387747 33.04070347 -0.31738281 29.61987305 C-0.39385581 26.79878421 -0.34849335 24.00781921 -0.25 21.1875 C-0.23195313 20.20845703 -0.21390625 19.22941406 -0.1953125 18.22070312 C-0.14832887 15.81279229 -0.08265694 13.40690665 0 11 C-1.98 11 -3.96 11 -6 11 C-6 9.68 -6 8.36 -6 7 C-4.02 7 -2.04 7 0 7 C0 4.69 0 2.38 0 0 Z " fill="#5E646A" transform="translate(795,230)"/>
<path d="M0 0 C2.9375 2.0625 2.9375 2.0625 5 5 C5 7.31 5 9.62 5 12 C0.38 12 -4.24 12 -9 12 C-8.01 13.65 -7.02 15.3 -6 17 C-2.44569217 17.45374142 0.58827648 17.04976108 4 16 C3.625 17.9375 3.625 17.9375 3 20 C-0.48071228 21.74035614 -4.20212738 21.57339107 -8 21 C-10.84151734 18.85153567 -11.80810947 17.37812291 -12.30078125 13.83984375 C-12.43693243 9.54749876 -12.18422777 5.79365876 -10 2 C-6.24952518 -0.50031654 -4.44143734 -0.53603554 0 0 Z " fill="#5A6066" transform="translate(662,318)"/>
<path d="M0 0 C1.65 0 3.3 0 5 0 C5 13.86 5 27.72 5 42 C3.35 42 1.7 42 0 42 C0 28.14 0 14.28 0 0 Z " fill="#5F646A" transform="translate(862,224)"/>
<path d="M0 0 C1.65 0 3.3 0 5 0 C5 13.86 5 27.72 5 42 C3.35 42 1.7 42 0 42 C0 28.14 0 14.28 0 0 Z " fill="#60666B" transform="translate(480,224)"/>
<path d="M0 0 C1.65 0 3.3 0 5 0 C5 13.86 5 27.72 5 42 C3.35 42 1.7 42 0 42 C0 28.14 0 14.28 0 0 Z " fill="#60666C" transform="translate(301,224)"/>
<path d="M0 0 C2.475 0.495 2.475 0.495 5 1 C5.176521 1.57032959 5.35304199 2.14065918 5.53491211 2.72827148 C6.33255199 5.2990273 7.13495994 7.86826993 7.9375 10.4375 C8.21529297 11.33533203 8.49308594 12.23316406 8.77929688 13.15820312 C9.18051758 14.43920898 9.18051758 14.43920898 9.58984375 15.74609375 C9.83597412 16.53685303 10.08210449 17.3276123 10.33569336 18.14233398 C10.84686051 19.98943308 10.84686051 19.98943308 12 21 C14.31 14.07 16.62 7.14 19 0 C20.65 0 22.3 0 24 0 C20.89582732 9.41265265 17.52052834 18.73545174 14 28 C12.68 28 11.36 28 10 28 C5.85366605 19.0930604 1.66447475 9.73077548 0 0 Z " fill="#5A5F65" transform="translate(299,311)"/>
<path d="M0 0 C1.32 0 2.64 0 4 0 C4 0.66 4 1.32 4 2 C4.99 1.34 5.98 0.68 7 0 C10.4501392 -0.4404433 12.26484956 -0.49889922 15.17578125 1.4765625 C17.8423153 5.16517277 17.44087211 8.32323539 17.25 12.75 C17.23195313 13.54277344 17.21390625 14.33554687 17.1953125 15.15234375 C17.14833082 17.10208348 17.07659044 19.05119878 17 21 C15.68 21 14.36 21 13 21 C12.67 15.72 12.34 10.44 12 5 C7.28941438 3.6278958 7.28941438 3.6278958 4 5 C4 10.28 4 15.56 4 21 C2.68 21 1.36 21 0 21 C0 14.07 0 7.14 0 0 Z " fill="#5C6167" transform="translate(441,318)"/>
<path d="M0 0 C2.475 0.495 2.475 0.495 5 1 C5.66 0.67 6.32 0.34 7 0 C11.05142119 -0.25860135 12.54337669 -0.30441554 16 2 C17.25433458 5.76300374 17.10695422 9.27210909 17.0625 13.1875 C17.05798828 13.93708984 17.05347656 14.68667969 17.04882812 15.45898438 C17.03706354 17.30602383 17.01912865 19.15302213 17 21 C15.68 21 14.36 21 13 21 C12.67 15.72 12.34 10.44 12 5 C7.39467611 3.54685336 7.39467611 3.54685336 5 5 C4.68758545 7.71446979 4.48663408 10.33909361 4.375 13.0625 C4.33632813 13.82111328 4.29765625 14.57972656 4.2578125 15.36132812 C4.16326438 17.24047195 4.08053244 19.12020336 4 21 C2.68 21 1.36 21 0 21 C0 14.07 0 7.14 0 0 Z " fill="#52575D" transform="translate(713,318)"/>
<path d="M0 0 C0 1.65 0 3.3 0 5 C-1.134375 5.309375 -2.26875 5.61875 -3.4375 5.9375 C-6.78775099 6.62924531 -6.78775099 6.62924531 -8 8 C-8.15714654 9.63256758 -8.25085414 11.27135338 -8.31640625 12.91015625 C-8.35830078 13.89951172 -8.40019531 14.88886719 -8.44335938 15.90820312 C-8.48267578 16.94912109 -8.52199219 17.99003906 -8.5625 19.0625 C-8.62727539 20.62967773 -8.62727539 20.62967773 -8.69335938 22.22851562 C-8.79981225 24.81886884 -8.9018276 27.40932186 -9 30 C-10.65 30 -12.3 30 -14 30 C-14 20.43 -14 10.86 -14 1 C-12.35 1 -10.7 1 -9 1 C-9 1.66 -9 2.32 -9 3 C-8.443125 2.505 -7.88625 2.01 -7.3125 1.5 C-4.61837017 -0.24754367 -3.14624993 -0.26218749 0 0 Z " fill="#5F656B" transform="translate(600,236)"/>
<path d="M0 0 C1.32 0 2.64 0 4 0 C4.33 5.94 4.66 11.88 5 18 C8.96 17.505 8.96 17.505 13 17 C13 11.39 13 5.78 13 0 C14.32 0 15.64 0 17 0 C17 6.93 17 13.86 17 21 C15.68 20.67 14.36 20.34 13 20 C12.34 20.33 11.68 20.66 11 21 C5.11297071 21.56066946 5.11297071 21.56066946 3 21 C-0.51972981 16.95152154 -0.36540117 12.79189516 -0.1875 7.6875 C-0.17396484 6.94693359 -0.16042969 6.20636719 -0.14648438 5.44335938 C-0.11135979 3.62858925 -0.05755972 1.81419712 0 0 Z " fill="#585E63" transform="translate(518,318)"/>
<path d="M0 0 C2.31 0 4.62 0 7 0 C7 8.58 7 17.16 7 26 C4.69 26 2.38 26 0 26 C0 17.42 0 8.84 0 0 Z " fill="#F2F3F4" transform="translate(583,433)"/>
<path d="M0 0 C2.31 0 4.62 0 7 0 C7 8.58 7 17.16 7 26 C4.69 26 2.38 26 0 26 C0 17.42 0 8.84 0 0 Z " fill="#F2F3F4" transform="translate(534,433)"/>
<path d="M0 0 C1.859375 0.12109375 1.859375 0.12109375 4 1 C5.265625 3.72265625 5.265625 3.72265625 6.25 7.0625 C6.58515625 8.16722656 6.9203125 9.27195312 7.265625 10.41015625 C7.50796875 11.26480469 7.7503125 12.11945313 8 13 C8.19335938 12.39671875 8.38671875 11.7934375 8.5859375 11.171875 C8.84632813 10.37265625 9.10671875 9.5734375 9.375 8.75 C9.63023437 7.96109375 9.88546875 7.1721875 10.1484375 6.359375 C10.95173667 4.13372042 11.89711662 2.09068328 13 0 C14.32 0 15.64 0 17 0 C16.81896729 0.54019775 16.63793457 1.08039551 16.45141602 1.63696289 C15.10386609 5.66749207 13.76933716 9.70140722 12.46484375 13.74609375 C11.70117188 16.09179688 11.70117188 16.09179688 10.9375 18.4375 C10.68162109 19.23865234 10.42574219 20.03980469 10.16210938 20.86523438 C9.91138672 21.63029297 9.66066406 22.39535156 9.40234375 23.18359375 C9.18054443 23.86993896 8.95874512 24.55628418 8.73022461 25.26342773 C8 27 8 27 6 29 C2.875 29.125 2.875 29.125 0 29 C0 28.01 0 27.02 0 26 C1.65 25.34 3.3 24.68 5 24 C4.58013101 17.59699793 3.25147274 12.42800929 0.83984375 6.48046875 C0 4 0 4 0 0 Z " fill="#595E64" transform="translate(810,318)"/>
<path d="M0 0 C0.99 0 1.98 0 3 0 C3 3.3 3 6.6 3 10 C3.99 9.34 4.98 8.68 6 8 C12.24462616 7.44244409 12.24462616 7.44244409 14.70043945 9.25512695 C16.3156962 11.4238739 16.35000502 12.54976414 16.29296875 15.23046875 C16.28330078 16.03291016 16.27363281 16.83535156 16.26367188 17.66210938 C16.23853516 18.49548828 16.21339844 19.32886719 16.1875 20.1875 C16.16719727 21.4549707 16.16719727 21.4549707 16.14648438 22.74804688 C16.11115799 24.83230384 16.05735139 26.91623277 16 29 C15.01 29 14.02 29 13 29 C12.67 23.72 12.34 18.44 12 13 C6.44189396 11.59276439 6.44189396 11.59276439 3 13 C3 18.28 3 23.56 3 29 C2.01 29 1.02 29 0 29 C0 19.43 0 9.86 0 0 Z " fill="#5E646A" transform="translate(692,310)"/>
<path d="M0 0 C7.26 0 14.52 0 22 0 C22 1.32 22 2.64 22 4 C19.03 4 16.06 4 13 4 C13 11.92 13 19.84 13 28 C11.68 28 10.36 28 9 28 C9 19.75 9 11.5 9 3 C6.03 3 3.06 3 0 3 C0 2.01 0 1.02 0 0 Z " fill="#5A6065" transform="translate(627,311)"/>
<path d="M0 0 C2.4375 1.3125 2.4375 1.3125 4 3 C4 3.99 4 4.98 4 6 C0.125 5.125 0.125 5.125 -1 4 C-2.66617115 3.95936168 -4.33388095 3.957279 -6 4 C-6 5.32 -6 6.64 -6 8 C-5.37351562 8.19335938 -4.74703125 8.38671875 -4.1015625 8.5859375 C-3.28429687 8.84632813 -2.46703125 9.10671875 -1.625 9.375 C-0.81289063 9.63023437 -0.00078125 9.88546875 0.8359375 10.1484375 C3 11 3 11 5 13 C4.8125 16 4.8125 16 4 19 C0.90219052 21.06520632 0.0459519 21.29477024 -3.5 21.3125 C-4.66015625 21.33763672 -4.66015625 21.33763672 -5.84375 21.36328125 C-8.52194538 20.91206355 -9.41063549 20.17518797 -11 18 C-11 17.01 -11 16.02 -11 15 C-10.01 15 -9.02 15 -8 15 C-7.67 15.66 -7.34 16.32 -7 17 C-4.69 17 -2.38 17 0 17 C-0.15110679 15.03164856 -0.15110679 15.03164856 -1 13 C-3.04831139 11.89794531 -3.04831139 11.89794531 -5.5 11.3125 C-9.94701987 10.05298013 -9.94701987 10.05298013 -11 9 C-11.3125 6.125 -11.3125 6.125 -11 3 C-7.93204001 -0.68155198 -4.54559187 -0.4870277 0 0 Z " fill="#5E646A" transform="translate(474,318)"/>
<path d="M0 0 C2.4375 1.8125 2.4375 1.8125 4 4 C4 4.99 4 5.98 4 7 C3.01 7 2.02 7 1 7 C0.54625 6.484375 0.0925 5.96875 -0.375 5.4375 C-0.91125 4.963125 -1.4475 4.48875 -2 4 C-5.31818985 4.24205349 -5.31818985 4.24205349 -8 6 C-8.09823996 7.47648876 -8.12973519 8.95775417 -8.125 10.4375 C-8.12757813 11.24058594 -8.13015625 12.04367187 -8.1328125 12.87109375 C-8.13578326 15.05397931 -8.13578326 15.05397931 -7 17 C-4.67843403 17.40729228 -2.3431213 17.74438677 0 18 C0.33 17.01 0.66 16.02 1 15 C1.99 15 2.98 15 4 15 C3.6875 16.875 3.6875 16.875 3 19 C-0.21578917 21.14385945 -2.231956 21.4719871 -6.0625 21.39453125 C-8 21 -8 21 -10.4375 18.625 C-12.97177158 14.36742374 -13.71185662 10.95452208 -13 6 C-9.37591558 0.32226775 -6.66016759 -0.57415238 0 0 Z " fill="#585D63" transform="translate(683,318)"/>
<path d="M0 0 C1.63671875 1.20703125 1.63671875 1.20703125 3 3 C3.36328125 5.41015625 3.36328125 5.41015625 3.3125 8.0625 C3.30863281 8.94035156 3.30476563 9.81820313 3.30078125 10.72265625 C3 13 3 13 1 15 C-2.5 15.25 -2.5 15.25 -6 15 C-8.51012963 12.48987037 -8.29721609 11.53194763 -8.3125 8.0625 C-8.32925781 7.18722656 -8.34601563 6.31195313 -8.36328125 5.41015625 C-8 3 -8 3 -6.63671875 1.20703125 C-4.30371598 -0.51348869 -2.82828978 -0.42424347 0 0 Z " fill="#0E1115" transform="translate(376,321)"/>
<path d="M0 0 C2.9375 0.8125 2.9375 0.8125 4.9375 2.8125 C5.23828125 5.125 5.23828125 5.125 5.25 7.8125 C5.26675781 8.699375 5.28351562 9.58625 5.30078125 10.5 C5.18089844 11.263125 5.06101562 12.02625 4.9375 12.8125 C1.48504176 15.11413882 -0.00988713 15.15740322 -4.0625 14.8125 C-6.57262963 12.30237037 -6.35971609 11.34444763 -6.375 7.875 C-6.39175781 6.99972656 -6.40851562 6.12445313 -6.42578125 5.22265625 C-6.0625 2.8125 -6.0625 2.8125 -4.734375 0.984375 C-3.0625 -0.1875 -3.0625 -0.1875 0 0 Z " fill="#0E1014" transform="translate(776.0625,321.1875)"/>
<path d="M0 0 C2.9375 0.8125 2.9375 0.8125 4.9375 2.8125 C5.203125 5.125 5.203125 5.125 5.1875 7.8125 C5.19265625 8.699375 5.1978125 9.58625 5.203125 10.5 C4.9375 12.8125 4.9375 12.8125 2.9375 14.8125 C-0.5625 15.125 -0.5625 15.125 -4.0625 14.8125 C-6.12770632 11.71469052 -6.35727024 10.8584519 -6.375 7.3125 C-6.39175781 6.5390625 -6.40851562 5.765625 -6.42578125 4.96875 C-5.73898427 0.8922776 -4.01928273 -0.24607853 0 0 Z " fill="#0E1014" transform="translate(744.0625,321.1875)"/>
<path d="M0 0 C2.9375 0.8125 2.9375 0.8125 4.9375 2.8125 C5.203125 4.87109375 5.203125 4.87109375 5.1875 7.25 C5.19265625 8.03246094 5.1978125 8.81492187 5.203125 9.62109375 C4.9375 11.8125 4.9375 11.8125 2.9375 14.8125 C-0.5625 15.1875 -0.5625 15.1875 -4.0625 14.8125 C-6.12770632 11.71469052 -6.35727024 10.8584519 -6.375 7.3125 C-6.39175781 6.5390625 -6.40851562 5.765625 -6.42578125 4.96875 C-5.73898427 0.8922776 -4.01928273 -0.24607853 0 0 Z " fill="#0D0F13" transform="translate(593.0625,321.1875)"/>
<path d="M0 0 C1.32 0 2.64 0 4 0 C4 1.65 4 3.3 4 5 C5.32 5 6.64 5 8 5 C8 5.99 8 6.98 8 8 C6.68 8 5.36 8 4 8 C4 12.95 4 17.9 4 23 C5.32 23 6.64 23 8 23 C8 23.99 8 24.98 8 26 C5.125 26.125 5.125 26.125 2 26 C0 24 0 24 -0.1953125 20.3046875 C-0.182009 18.82799892 -0.15814835 17.35137642 -0.125 15.875 C-0.11597656 15.12089844 -0.10695313 14.36679687 -0.09765625 13.58984375 C-0.0740687 11.72642746 -0.03819719 9.86317407 0 8 C-1.32 8 -2.64 8 -4 8 C-4 7.01 -4 6.02 -4 5 C-2.68 5 -1.36 5 0 5 C0 3.35 0 1.7 0 0 Z " fill="#585D63" transform="translate(507,313)"/>
<path d="M0 0 C0.99 0.103125 1.98 0.20625 3 0.3125 C5.06520632 3.41030948 5.29477024 4.2665481 5.3125 7.8125 C5.32925781 8.5859375 5.34601562 9.359375 5.36328125 10.15625 C4.91395205 12.8232362 4.14864474 13.71255451 2 15.3125 C-0.5 15.3125 -0.5 15.3125 -3 14.3125 C-5.71066415 11.24041396 -6.0220612 9.74637021 -5.8125 5.625 C-4.79227536 1.46562263 -4.31624361 0.44960871 0 0 Z " fill="#141519" transform="translate(606,438.6875)"/>
<path d="M0 0 C0 1.32 0 2.64 0 4 C-1.65 4 -3.3 4 -5 4 C-5 5.65 -5 7.3 -5 9 C-3.68 9 -2.36 9 -1 9 C-1 9.99 -1 10.98 -1 12 C-2.65 12 -4.3 12 -6 12 C-6 17.94 -6 23.88 -6 30 C-6.99 30 -7.98 30 -9 30 C-9 24.06 -9 18.12 -9 12 C-9.99 12 -10.98 12 -12 12 C-12 11.01 -12 10.02 -12 9 C-11.01 9 -10.02 9 -9 9 C-8.8453125 7.329375 -8.8453125 7.329375 -8.6875 5.625 C-8.460625 4.42875 -8.23375 3.2325 -8 2 C-4.77208445 -0.1519437 -3.71599191 -0.20086443 0 0 Z " fill="#60666C" transform="translate(617,309)"/>
<path d="M0 0 C2.4375 0.375 2.4375 0.375 4.4375 2.375 C4.66796875 5.16015625 4.66796875 5.16015625 4.625 8.4375 C4.61533203 10.06365234 4.61533203 10.06365234 4.60546875 11.72265625 C4.4375 14.375 4.4375 14.375 3.4375 15.375 C0.5625 15.6875 0.5625 15.6875 -2.5625 15.375 C-5.37122754 13.03439372 -5.54685997 11.52097363 -5.9375 7.875 C-5.45418216 3.36403348 -4.790461 0.70104307 0 0 Z " fill="#0E1014" transform="translate(797.5625,320.625)"/>
<path d="M0 0 C1.32 0 2.64 0 4 0 C4 1.65 4 3.3 4 5 C5.32 5 6.64 5 8 5 C8 5.99 8 6.98 8 8 C6.68 8 5.36 8 4 8 C4.33 12.62 4.66 17.24 5 22 C5.99 22.33 6.98 22.66 8 23 C8 23.99 8 24.98 8 26 C5.625 26.125 5.625 26.125 3 26 C1 24 1 24 0.8046875 20.3046875 C0.817991 18.82799892 0.84185165 17.35137642 0.875 15.875 C0.88402344 15.12089844 0.89304687 14.36679687 0.90234375 13.58984375 C0.9259313 11.72642746 0.96180281 9.86317407 1 8 C-0.32 8 -1.64 8 -3 8 C-3 7.01 -3 6.02 -3 5 C-2.01 5 -1.02 5 0 5 C0 3.35 0 1.7 0 0 Z " fill="#5C6167" transform="translate(484,313)"/>
<path d="M0 0 C1.32 0 2.64 0 4 0 C4 9.57 4 19.14 4 29 C2.68 29 1.36 29 0 29 C0 19.43 0 9.86 0 0 Z " fill="#555A60" transform="translate(346,310)"/>
<path d="M0 0 C0.99 0 1.98 0 3 0 C3 1.32 3 2.64 3 4 C4.32 4 5.64 4 7 4 C7 4.99 7 5.98 7 7 C5.68 7 4.36 7 3 7 C3 11.95 3 16.9 3 22 C4.32 22 5.64 22 7 22 C7 22.99 7 23.98 7 25 C5.02 25 3.04 25 1 25 C-0.59412284 21.81175432 -0.10174735 18.37103338 -0.0625 14.875 C-0.05798828 14.12089844 -0.05347656 13.36679687 -0.04882812 12.58984375 C-0.03703499 10.72652873 -0.01909942 8.86325445 0 7 C-1.32 7 -2.64 7 -4 7 C-4 6.01 -4 5.02 -4 4 C-2.68 4 -1.36 4 0 4 C0 2.68 0 1.36 0 0 Z " fill="#60666C" transform="translate(542,314)"/>
<path d="M0 0 C2.375 1.6875 2.375 1.6875 4 4 C4 5.65 4 7.3 4 9 C-0.95 9 -5.9 9 -11 9 C-7.63636364 -1.09090909 -7.63636364 -1.09090909 0 0 Z " fill="#13161A" transform="translate(571,240)"/>
<path d="M0 0 C3.4375 1.0625 3.4375 1.0625 5.375 3.4375 C6.4375 6.0625 6.4375 6.0625 6.4375 9.0625 C1.4875 9.0625 -3.4625 9.0625 -8.5625 9.0625 C-7.36284102 3.06420508 -6.47897028 0.11366615 0 0 Z " fill="#14161A" transform="translate(406.5625,239.9375)"/>
<path d="M0 0 C3.3 0 6.6 0 10 0 C10 0.99 10 1.98 10 3 C8.35 3.66 6.7 4.32 5 5 C4.67 10.28 4.34 15.56 4 21 C2.68 21 1.36 21 0 21 C0 14.07 0 7.14 0 0 Z " fill="#565B61" transform="translate(387,318)"/>
<path d="M0 0 C2.375 1.75 2.375 1.75 4 4 C4 5.32 4 6.64 4 8 C-0.95 8 -5.9 8 -11 8 C-10 2 -10 2 -8.3125 0.625 C-5.32755691 -0.18174138 -3.08085454 -0.38510682 0 0 Z " fill="#121418" transform="translate(329,241)"/>
<path d="M0 0 C2.375 1.75 2.375 1.75 4 4 C4 5.32 4 6.64 4 8 C-0.95 8 -5.9 8 -11 8 C-10 3 -10 3 -9 1 C-5.68377419 -0.1054086 -3.47482175 -0.35457365 0 0 Z " fill="#121418" transform="translate(465,241)"/>
<path d="M0 0 C1.875 1.1875 1.875 1.1875 3 3 C3 4.65 3 6.3 3 8 C-1.62 8 -6.24 8 -11 8 C-11 6.35 -11 4.7 -11 3 C-7.49511528 0.0105395 -4.52844074 -0.59066618 0 0 Z " fill="#111317" transform="translate(748,241)"/>
<path d="M0 0 C0.66 0 1.32 0 2 0 C2 1.65 2 3.3 2 5 C5.3 5 8.6 5 12 5 C12 5.33 12 5.66 12 6 C8.7 6 5.4 6 2 6 C3.08784968 9.24983135 3.08784968 9.24983135 5 12 C8.52637472 12.15672777 11.61905851 12.04028969 15 11 C14.625 12.9375 14.625 12.9375 14 15 C10.51928772 16.74035614 6.79787262 16.57339107 3 16 C0.4375 14.0625 0.4375 14.0625 -1 11 C-1.44569242 7.19850585 -1.73859813 3.47719627 0 0 Z " fill="#60666C" transform="translate(651,323)"/>
<path d="M0 0 C0.33 0 0.66 0 1 0 C1 1.65 1 3.3 1 5 C4.3 5 7.6 5 11 5 C11 5.33 11 5.66 11 6 C7.7 6 4.4 6 1 6 C1.66 7.98 2.32 9.96 3 12 C4.258125 12 5.51625 12 6.8125 12 C9.20833333 12 11.60416667 12 14 12 C13 15 13 15 11 16 C6.79907375 16.49470367 3.21178886 16.65022817 -0.5625 14.625 C-2.75737211 10.61697267 -2.6708379 6.47745293 -2 2 C-1.34 1.34 -0.68 0.68 0 0 Z " fill="#61676D" transform="translate(402,323)"/>
<path d="M0 0 C0.99 0 1.98 0 3 0 C3 9.57 3 19.14 3 29 C2.01 29 1.02 29 0 29 C0 19.43 0 9.86 0 0 Z " fill="#62686E" transform="translate(758,310)"/>
<path d="M0 0 C0.99 0 1.98 0 3 0 C3 9.57 3 19.14 3 29 C2.01 29 1.02 29 0 29 C0 19.43 0 9.86 0 0 Z " fill="#63696F" transform="translate(356,310)"/>
<path d="M0 0 C0.99 0 1.98 0 3 0 C3 9.24 3 18.48 3 28 C2.01 28 1.02 28 0 28 C0 18.76 0 9.52 0 0 Z " fill="#63696F" transform="translate(432,311)"/>
<path d="M0 0 C0.66 0 1.32 0 2 0 C2 3.63 2 7.26 2 11 C2.99 11 3.98 11 5 11 C5 11.66 5 12.32 5 13 C4.34 13 3.68 13 3 13 C3 18.28 3 23.56 3 29 C2.01 29 1.02 29 0 29 C0 19.43 0 9.86 0 0 Z " fill="#646A70" transform="translate(692,310)"/>
<path d="M0 0 C0.66 0 1.32 0 2 0 C2 0.66 2 1.32 2 2 C2.99 2.33 3.98 2.66 5 3 C4.67 3.33 4.34 3.66 4 4 C3.76321284 6.69235776 3.57801975 9.36498156 3.4375 12.0625 C3.39431641 12.82111328 3.35113281 13.57972656 3.30664062 14.36132812 C3.20026367 16.24065438 3.09960066 18.12030244 3 20 C2.01 20 1.02 20 0 20 C0 13.4 0 6.8 0 0 Z " fill="#5F646A" transform="translate(714,319)"/>
<path d="M0 0 C0.99 0 1.98 0 3 0 C3 6.6 3 13.2 3 20 C2.01 20 1.02 20 0 20 C0 13.4 0 6.8 0 0 Z " fill="#63696F" transform="translate(497,319)"/>
<path d="M0 0 C0.66 0 1.32 0 2 0 C2 0.66 2 1.32 2 2 C2.66 2 3.32 2 4 2 C3.67 7.94 3.34 13.88 3 20 C2.01 20 1.02 20 0 20 C0 13.4 0 6.8 0 0 Z " fill="#63696F" transform="translate(442,319)"/>
<path d="M0 0 C0.66 0.99 1.32 1.98 2 3 C2.33 3.33 2.66 3.66 3 4 C3.39148761 5.51165654 3.73972457 7.03469632 4.0625 8.5625 C4.23910156 9.38878906 4.41570313 10.21507812 4.59765625 11.06640625 C4.73042969 11.70449219 4.86320313 12.34257812 5 13 C7.97 13.495 7.97 13.495 11 14 C11 14.33 11 14.66 11 15 C9.35 15 7.7 15 6 15 C6 15.66 6 16.32 6 17 C2.60536981 15.59532544 0.92273179 14.13192855 -1 11 C-1.328125 8.45703125 -1.328125 8.45703125 -1.25 5.8125 C-1.23453125 4.93207031 -1.2190625 4.05164063 -1.203125 3.14453125 C-1 1 -1 1 0 0 Z " fill="#53585E" transform="translate(735,322)"/>
<path d="M0 0 C0.33 0 0.66 0 1 0 C1.12117187 0.61488281 1.24234375 1.22976563 1.3671875 1.86328125 C1.53476562 2.67152344 1.70234375 3.47976563 1.875 4.3125 C2.03742187 5.11300781 2.19984375 5.91351563 2.3671875 6.73828125 C2.94478999 9.25301118 2.94478999 9.25301118 5 12 C7.56282742 12.72965366 7.56282742 12.72965366 10 13 C10 13.66 10 14.32 10 15 C6.8125 15.375 6.8125 15.375 3 15 C-0.81361699 11.67322773 -1.84944751 10.2904499 -2.4375 5.25 C-2 2 -2 2 0 0 Z " fill="#60666C" transform="translate(585,324)"/>
<path d="M0 0 C6.34507042 -0.35915493 6.34507042 -0.35915493 8.9375 1.0625 C10.55479605 4.01168691 10.18630138 6.70867559 10 10 C5.71 9.67 1.42 9.34 -3 9 C-3 8.67 -3 8.34 -3 8 C0.3 8 3.6 8 7 8 C5.84434349 5.46115547 5.84434349 5.46115547 4 3 C1.40877257 2.11341534 1.40877257 2.11341534 -1 2 C-0.67 1.34 -0.34 0.68 0 0 Z " fill="#5D6268" transform="translate(331,319)"/>
<path d="M0 0 C1.65 0 3.3 0 5 0 C4.36281399 2.00958663 3.68836513 4.00736409 3 6 C2.78214844 6.63421875 2.56429688 7.2684375 2.33984375 7.921875 C1.625 9.8125 1.625 9.8125 0 13 C-2.1015625 13.69921875 -2.1015625 13.69921875 -4 14 C-3.52372025 12.04096255 -3.04388577 10.08278903 -2.5625 8.125 C-2.29566406 7.03445313 -2.02882813 5.94390625 -1.75390625 4.8203125 C-1 2 -1 2 0 0 Z " fill="#555B60" transform="translate(318,311)"/>
<path d="M0 0 C5.45454545 0.45454545 5.45454545 0.45454545 8 3 C8 3.99 8 4.98 8 6 C4.37 6 0.74 6 -3 6 C-2 2 -2 2 0 0 Z " fill="#191B1F" transform="translate(656,321)"/>
<path d="M0 0 C3.125 0.375 3.125 0.375 6 1 C6.33 2.65 6.66 4.3 7 6 C3.7 6 0.4 6 -3 6 C-2 2 -2 2 0 0 Z " fill="#15181C" transform="translate(559,321)"/>
<path d="M0 0 C3.125 0.375 3.125 0.375 6 1 C6.33 2.65 6.66 4.3 7 6 C3.7 6 0.4 6 -3 6 C-2 2 -2 2 0 0 Z " fill="#14171B" transform="translate(406,321)"/>
<path d="M0 0 C4.29107165 -0.4206933 6.35134537 -0.45543836 9.9375 2.0625 C12 5 12 5 12 12 C7.38 12 2.76 12 -2 12 C-2 11.67 -2 11.34 -2 11 C2.29 11 6.58 11 11 11 C11 9.35 11 7.7 11 6 C10.34 6 9.68 6 9 6 C8.67 6.99 8.34 7.98 8 9 C7.87625 8.360625 7.7525 7.72125 7.625 7.0625 C7.41875 6.381875 7.2125 5.70125 7 5 C6.34 4.67 5.68 4.34 5 4 C5 3.01 5 2.02 5 1 C3.35 1 1.7 1 0 1 C0 0.67 0 0.34 0 0 Z " fill="#52575D" transform="translate(558,318)"/>
<path d="M0 0 C2.5 0.0625 2.5 0.0625 5 1 C6.3125 3.5625 6.3125 3.5625 7 6 C3.7 6 0.4 6 -3 6 C-2 2 -2 2 0 0 Z " fill="#14161A" transform="translate(331,321)"/>
<path d="M0 0 C0.33 0 0.66 0 1 0 C1.12117187 0.62648438 1.24234375 1.25296875 1.3671875 1.8984375 C1.53476562 2.71570313 1.70234375 3.53296875 1.875 4.375 C2.03742187 5.18710937 2.19984375 5.99921875 2.3671875 6.8359375 C2.86658932 9.18673923 2.86658932 9.18673923 5 11 C7.57061311 11.64767793 7.57061311 11.64767793 10 12 C10 12.66 10 13.32 10 14 C3.73426573 14.60247445 3.73426573 14.60247445 0.5625 12 C-1.53418206 7.97437044 -1.37510335 5.50124016 -1 1 C-0.67 0.67 -0.34 0.34 0 0 Z " fill="#62676D" transform="translate(768,325)"/>
<path d="M0 0 C0 0.33 0 0.66 0 1 C-0.78375 1.0825 -1.5675 1.165 -2.375 1.25 C-5.05112253 1.73322067 -5.05112253 1.73322067 -6.25 3.625 C-7.22686916 6.71841899 -7.6288066 9.78299058 -8 13 C-8.33 13 -8.66 13 -9 13 C-9.33 11.35 -9.66 9.7 -10 8 C-10.33 10.64 -10.66 13.28 -11 16 C-11.33 16 -11.66 16 -12 16 C-12.56707317 6.3597561 -12.56707317 6.3597561 -9 2 C-5.5647952 -0.29013653 -4.014669 -0.17842973 0 0 Z " fill="#51565C" transform="translate(778,318)"/>
<path d="M0 0 C1.32 0 2.64 0 4 0 C4 0.66 4 1.32 4 2 C4.99 1.34 5.98 0.68 7 0 C10.1875 -0.125 10.1875 -0.125 13 0 C10.64722731 2.72426311 8.37503669 3.8141763 5 5 C5 4.34 5 3.68 5 3 C4.34 3 3.68 3 3 3 C3 2.34 3 1.68 3 1 C2.34 1 1.68 1 1 1 C1 7.6 1 14.2 1 21 C0.67 21 0.34 21 0 21 C0 14.07 0 7.14 0 0 Z " fill="#44484E" transform="translate(441,318)"/>
<path d="M0 0 C0.38218767 1.65614657 0.71395102 3.32457024 1 5 C0 6 0 6 -2.5 6.125 C-5 6 -5 6 -6 5 C-6.04063832 3.33382885 -6.042721 1.66611905 -6 0 C-3.50907189 -1.24546405 -2.58919267 -0.7767578 0 0 Z " fill="#F4F5F6" transform="translate(589,424)"/>
<path d="M0 0 C0.38218767 1.65614657 0.71395102 3.32457024 1 5 C0 6 0 6 -2.5 6.125 C-5 6 -5 6 -6 5 C-6.04063832 3.33382885 -6.042721 1.66611905 -6 0 C-3.50907189 -1.24546405 -2.58919267 -0.7767578 0 0 Z " fill="#F4F5F6" transform="translate(540,424)"/>
<path d="M0 0 C0 1.32 0 2.64 0 4 C-1.65 4 -3.3 4 -5 4 C-5 5.65 -5 7.3 -5 9 C-3.68 9.33 -2.36 9.66 -1 10 C-2.65 10 -4.3 10 -6 10 C-6.144375 9.236875 -6.28875 8.47375 -6.4375 7.6875 C-6.9632594 4.91827092 -6.9632594 4.91827092 -8 2 C-4.77208445 -0.1519437 -3.71599191 -0.20086443 0 0 Z " fill="#50545A" transform="translate(617,309)"/>
<path d="M0 0 C0.66 0.33 1.32 0.66 2 1 C6.65275976 1.3052622 6.65275976 1.3052622 11 0 C11 1.66666667 11 3.33333333 11 5 C7.7 5 4.4 5 1 5 C0.34 3.68 -0.32 2.36 -1 1 C-0.67 0.67 -0.34 0.34 0 0 Z " fill="#53595E" transform="translate(791,342)"/>
<path d="M0 0 C1.4540625 0.0309375 1.4540625 0.0309375 2.9375 0.0625 C2.9375 0.3925 2.9375 0.7225 2.9375 1.0625 C2.15375 1.145 1.37 1.2275 0.5625 1.3125 C-2.2071618 1.77099401 -2.2071618 1.77099401 -3.1875 4.0625 C-3.47625 4.7225 -3.765 5.3825 -4.0625 6.0625 C-5.0525 6.3925 -6.0425 6.7225 -7.0625 7.0625 C-7.3925 9.7025 -7.7225 12.3425 -8.0625 15.0625 C-8.3925 15.0625 -8.7225 15.0625 -9.0625 15.0625 C-9.84984859 7.03154441 -9.84984859 7.03154441 -6.625 3.0625 C-5.779375 2.4025 -4.93375 1.7425 -4.0625 1.0625 C-3.0625 0.0625 -3.0625 0.0625 0 0 Z " fill="#4C5156" transform="translate(408.0625,317.9375)"/>
<path d="M0 0 C0.33 0 0.66 0 1 0 C1 4.95 1 9.9 1 15 C2.32 15 3.64 15 5 15 C5 15.99 5 16.98 5 18 C3.02 18 1.04 18 -1 18 C-0.505 9.09 -0.505 9.09 0 0 Z " fill="#5B6066" transform="translate(544,321)"/>
<path d="M0 0 C0.66 0.33 1.32 0.66 2 1 C1.06027344 1.88751953 1.06027344 1.88751953 0.1015625 2.79296875 C-0.71570313 3.58316406 -1.53296875 4.37335938 -2.375 5.1875 C-3.18710937 5.96480469 -3.99921875 6.74210938 -4.8359375 7.54296875 C-6.98859852 9.987055 -8.00632706 11.92616557 -9 15 C-9.66796875 13.25390625 -9.66796875 13.25390625 -10 11 C-8.92578125 8.96484375 -8.92578125 8.96484375 -7.3125 6.9375 C-6.79300781 6.26589844 -6.27351562 5.59429687 -5.73828125 4.90234375 C-3.97190905 2.96925777 -2.14160351 1.49772272 0 0 Z " fill="#BD9736" transform="translate(587,137)"/>
<path d="M0 0 C0.5625 1.9375 0.5625 1.9375 1 4 C0 5 0 5 -3.5625 5.0625 C-4.696875 5.041875 -5.83125 5.02125 -7 5 C-7 5.66 -7 6.32 -7 7 C-8.9375 6.25 -8.9375 6.25 -11 5 C-11.75 2.875 -11.75 2.875 -12 1 C-11.01 1 -10.02 1 -9 1 C-8.67 1.66 -8.34 2.32 -8 3 C-5.69 3 -3.38 3 -1 3 C-0.67 2.01 -0.34 1.02 0 0 Z " fill="#565B61" transform="translate(475,332)"/>
<path d="M0 0 C1.32 0 2.64 0 4 0 C3.34 1.98 2.68 3.96 2 6 C1.34 6 0.68 6 0 6 C-0.66 7.65 -1.32 9.3 -2 11 C-2.95465783 8.83032311 -3.14401212 7.43671207 -2.3984375 5.17578125 C-1.64129615 3.4315257 -0.82390802 1.71372869 0 0 Z " fill="#4F5459" transform="translate(823,318)"/>
<path d="M0 0 C6.0546875 -0.1953125 6.0546875 -0.1953125 8 0 C10 2 10 2 10 5 C6.30099992 4.11223998 2.65449539 3.05418136 -1 2 C-0.67 1.34 -0.34 0.68 0 0 Z " fill="#60666C" transform="translate(468,319)"/>
<path d="M0 0 C5.47826087 -0.36521739 5.47826087 -0.36521739 7.875 1.3125 C9 3 9 3 9 6 C6 6 6 6 4.5 4.5625 C4.005 4.046875 3.51 3.53125 3 3 C2.01 2.67 1.02 2.34 0 2 C0 1.34 0 0.68 0 0 Z " fill="#5E6369" transform="translate(678,319)"/>
<path d="M0 0 C0 0.33 0 0.66 0 1 C-1.98 1.33 -3.96 1.66 -6 2 C-6.33 3.65 -6.66 5.3 -7 7 C-7.66 6.34 -8.32 5.68 -9 5 C-9.66 6.32 -10.32 7.64 -11 9 C-11.48192771 3.57831325 -11.48192771 3.57831325 -9.4375 1.125 C-6.19726212 -0.3704944 -3.52393641 -0.20330402 0 0 Z " fill="#51565B" transform="translate(474,318)"/>
<path d="M0 0 C4.29 0 8.58 0 13 0 C11.515 1.485 11.515 1.485 10 3 C7.51953125 2.85546875 7.51953125 2.85546875 4.8125 2.1875 C3.91144531 1.97480469 3.01039063 1.76210937 2.08203125 1.54296875 C1.39496094 1.36378906 0.70789063 1.18460938 0 1 C0 0.67 0 0.34 0 0 Z " fill="#739D4C" transform="translate(655,134)"/>
<path d="M0 0 C-0.3125 1.9375 -0.3125 1.9375 -1 4 C-1.99 4.33 -2.98 4.66 -4 5 C-4 4.34 -4 3.68 -4 3 C-5.98 3 -7.96 3 -10 3 C-10.33 2.34 -10.66 1.68 -11 1 C-9.88625 1.020625 -8.7725 1.04125 -7.625 1.0625 C-4.58237918 1.01004102 -2.83730029 0 0 0 Z " fill="#4A4E54" transform="translate(569,334)"/>
<path d="M0 0 C0 0.33 0 0.66 0 1 C-1.423125 1.12375 -1.423125 1.12375 -2.875 1.25 C-6.10461791 1.65074923 -6.10461791 1.65074923 -7.375 4.0625 C-7.58125 4.701875 -7.7875 5.34125 -8 6 C-8.99 5.67 -9.98 5.34 -11 5 C-9.07089686 -0.78730941 -5.38986894 -0.20339128 0 0 Z " fill="#555A60" transform="translate(662,318)"/>
<path d="M0 0 C0.66 0 1.32 0 2 0 C2 1.65 2 3.3 2 5 C-1.96 5 -5.92 5 -10 5 C-10 4.67 -10 4.34 -10 4 C-5.545 3.505 -5.545 3.505 -1 3 C-0.67 2.01 -0.34 1.02 0 0 Z " fill="#656B71" transform="translate(567,324)"/>
<path d="M0 0 C-0.3125 1.9375 -0.3125 1.9375 -1 4 C-1.99 4.33 -2.98 4.66 -4 5 C-4 4.34 -4 3.68 -4 3 C-5.65 3 -7.3 3 -9 3 C-9 2.67 -9 2.34 -9 2 C-2.25 0 -2.25 0 0 0 Z " fill="#4E5358" transform="translate(666,334)"/>
<path d="M0 0 C1.0326802 2.78823655 1.04509293 3.8677274 0.0625 6.75 C-0.288125 7.4925 -0.63875 8.235 -1 9 C-1.66 9 -2.32 9 -3 9 C-2.5020163 5.26512223 -2.12508244 3.18762365 0 0 Z " fill="#64696F" transform="translate(823,323)"/>
<path d="M0 0 C0.66 0.33 1.32 0.66 2 1 C1.67 1.99 1.34 2.98 1 4 C0.01 4.33 -0.98 4.66 -2 5 C-2 4.34 -2 3.68 -2 3 C-3.98 3 -5.96 3 -8 3 C-8 2.67 -8 2.34 -8 2 C-6.865625 1.855625 -5.73125 1.71125 -4.5625 1.5625 C-1.19222799 1.38828522 -1.19222799 1.38828522 0 0 Z " fill="#52575D" transform="translate(414,334)"/>
<path d="M0 0 C-0.33 1.32 -0.66 2.64 -1 4 C-3.97 3.67 -6.94 3.34 -10 3 C-10 2.67 -10 2.34 -10 2 C-3.375 0 -3.375 0 0 0 Z " fill="#474B51" transform="translate(341,334)"/>
<path d="M0 0 C0.66 0.33 1.32 0.66 2 1 C-0.31 3.31 -2.62 5.62 -5 8 C-5.33 7.34 -5.66 6.68 -6 6 C-4 4 -2 2 0 0 Z " fill="#54595F" transform="translate(456,237)"/>
<path d="M0 0 C0.66 0.33 1.32 0.66 2 1 C1.67 1.99 1.34 2.98 1 4 C-1.64 4.33 -4.28 4.66 -7 5 C-4.88437775 2.67281553 -2.94982021 1.14186589 0 0 Z " fill="#A74846" transform="translate(465,94)"/>
<path d="M0 0 C0.66 0.33 1.32 0.66 2 1 C-0.31 3.31 -2.62 5.62 -5 8 C-5 5 -5 5 -2.5 2.3125 C-1.675 1.549375 -0.85 0.78625 0 0 Z " fill="#575C62" transform="translate(400,237)"/>
</svg>
