<svg width="1920" height="1080" viewBox="0 0 1920 1080" fill="none" xmlns="http://www.w3.org/2000/svg">
<rect width="1920" height="1080" fill="#041727"/>
<path d="M653.175 486.011L624.549 442.192H976.651L944.208 486.011H884.093L788.672 622.337H728.557L820.161 486.011H653.175Z" fill="url(#paint0_linear_1202_2613)"/>
<path d="M571.55 458.57H505C524.965 487.263 623.295 622.498 632.835 631.083C642.375 639.669 664.72 643.16 680.882 622.119L758.841 514.043H697.044L651.41 577.167L571.55 458.57Z" fill="white"/>
<path d="M1059.82 612.558L1087.43 528.736H1116.82L1076.39 638H1042.86L1002.62 528.736H1032.21L1059.82 612.558ZM1129.57 532.089C1130.22 518.94 1134.82 508.816 1143.37 501.716C1152.05 494.484 1163.42 490.868 1177.49 490.868C1187.09 490.868 1195.31 492.577 1202.14 495.996C1208.98 499.283 1214.11 503.819 1217.53 509.605C1221.08 515.259 1222.85 521.701 1222.85 528.933C1222.85 537.217 1220.68 544.251 1216.35 550.036C1212.14 555.69 1207.08 559.503 1201.16 561.476V562.265C1208.78 564.631 1214.7 568.839 1218.91 574.887C1223.25 580.935 1225.42 588.693 1225.42 598.16C1225.42 606.049 1223.58 613.084 1219.9 619.263C1216.35 625.443 1211.02 630.308 1203.92 633.858C1196.95 637.277 1188.54 638.986 1178.67 638.986C1163.82 638.986 1151.72 635.239 1142.39 627.744C1133.05 620.25 1128.12 609.205 1127.59 594.61H1154.42C1154.68 601.053 1156.85 606.246 1160.92 610.191C1165.13 614.004 1170.85 615.911 1178.08 615.911C1184.79 615.911 1189.92 614.07 1193.47 610.388C1197.15 606.575 1198.99 601.71 1198.99 595.793C1198.99 587.904 1196.49 582.25 1191.49 578.832C1186.5 575.413 1178.74 573.704 1168.22 573.704H1162.5V551.023H1168.22C1186.89 551.023 1196.23 544.777 1196.23 532.286C1196.23 526.632 1194.52 522.227 1191.1 519.072C1187.81 515.916 1183.01 514.338 1176.7 514.338C1170.52 514.338 1165.72 516.048 1162.31 519.466C1159.02 522.753 1157.11 526.961 1156.59 532.089H1129.57ZM1262.62 639.381C1257.63 639.381 1253.48 637.869 1250.2 634.844C1247.04 631.689 1245.46 627.81 1245.46 623.208C1245.46 618.606 1247.04 614.793 1250.2 611.769C1253.48 608.613 1257.63 607.035 1262.62 607.035C1267.49 607.035 1271.5 608.613 1274.65 611.769C1277.81 614.793 1279.39 618.606 1279.39 623.208C1279.39 627.81 1277.81 631.689 1274.65 634.844C1271.5 637.869 1267.49 639.381 1262.62 639.381ZM1298.47 564.237C1298.47 541.49 1302.55 523.674 1310.7 510.788C1318.98 497.903 1332.66 491.46 1351.72 491.46C1370.79 491.46 1384.4 497.903 1392.55 510.788C1400.83 523.674 1404.97 541.49 1404.97 564.237C1404.97 587.115 1400.83 605.063 1392.55 618.08C1384.4 631.097 1370.79 637.606 1351.72 637.606C1332.66 637.606 1318.98 631.097 1310.7 618.08C1302.55 605.063 1298.47 587.115 1298.47 564.237ZM1377.76 564.237C1377.76 554.507 1377.1 546.355 1375.78 539.781C1374.6 533.075 1372.1 527.618 1368.29 523.411C1364.61 519.203 1359.09 517.099 1351.72 517.099C1344.36 517.099 1338.77 519.203 1334.96 523.411C1331.28 527.618 1328.78 533.075 1327.46 539.781C1326.28 546.355 1325.69 554.507 1325.69 564.237C1325.69 574.23 1326.28 582.645 1327.46 589.482C1328.65 596.188 1331.14 601.644 1334.96 605.852C1338.77 609.928 1344.36 611.966 1351.72 611.966C1359.09 611.966 1364.67 609.928 1368.49 605.852C1372.3 601.644 1374.8 596.188 1375.98 589.482C1377.16 582.645 1377.76 574.23 1377.76 564.237Z" fill="#BBE7FF"/>
<defs>
<linearGradient id="paint0_linear_1202_2613" x1="642.563" y1="750.076" x2="995.987" y2="409.354" gradientUnits="userSpaceOnUse">
<stop stop-color="#126AFC"/>
<stop offset="1" stop-color="#126AFC" stop-opacity="0"/>
</linearGradient>
</defs>
</svg>
